<?xml version="1.0" encoding="UTF-8" standalone="no"?>
<!-- Generator: Adobe Illustrator 19.2.0, SVG Export Plug-In . SVG Version: 6.00 Build 0)  -->

<svg
   xmlns:dc="http://purl.org/dc/elements/1.1/"
   xmlns:cc="http://creativecommons.org/ns#"
   xmlns:rdf="http://www.w3.org/1999/02/22-rdf-syntax-ns#"
   xmlns:svg="http://www.w3.org/2000/svg"
   xmlns="http://www.w3.org/2000/svg"
   xmlns:sodipodi="http://sodipodi.sourceforge.net/DTD/sodipodi-0.dtd"
   xmlns:inkscape="http://www.inkscape.org/namespaces/inkscape"
   version="1.1"
   id="Layer_1"
   x="0px"
   y="0px"
   viewBox="0 0 1920 1080"
   style="enable-background:new 0 0 1920 1080;"
   xml:space="preserve"
   sodipodi:docname="Professor_Getting_an_Idea_Cartoon.svg"
   inkscape:export-filename="/home/gpetit/Nextcloud/Plateformes/Noise_Planet/Noise_Planet/Kit_pedagogique/Presentation_generale/Images/Professor_Getting_an_Idea_Cartoon.png"
   inkscape:export-xdpi="96"
   inkscape:export-ydpi="96"
   inkscape:version="0.92.4 (f8dce91, 2019-08-02)"><metadata
   id="metadata271"><rdf:RDF><cc:Work
       rdf:about=""><dc:format>image/svg+xml</dc:format><dc:type
         rdf:resource="http://purl.org/dc/dcmitype/StillImage" /></cc:Work></rdf:RDF></metadata><defs
   id="defs269" /><sodipodi:namedview
   pagecolor="#ffffff"
   bordercolor="#666666"
   borderopacity="1"
   objecttolerance="10"
   gridtolerance="10"
   guidetolerance="10"
   inkscape:pageopacity="0"
   inkscape:pageshadow="2"
   inkscape:window-width="1878"
   inkscape:window-height="1136"
   id="namedview267"
   showgrid="false"
   inkscape:zoom="0.21851852"
   inkscape:cx="960"
   inkscape:cy="540"
   inkscape:window-x="42"
   inkscape:window-y="27"
   inkscape:window-maximized="1"
   inkscape:current-layer="Layer_1" />
<style
   type="text/css"
   id="style2">
	.st0{fill:#AA6F3D;}
	.st1{fill:#F8C09D;}
	.st2{fill:#F6AE8D;}
	.st3{fill:#774829;}
	.st4{fill:#A8C4CC;}
	.st5{fill:#FFFFFF;}
	.st6{fill:#E6E6E6;}
	.st7{fill:#EF937E;}
	.st8{fill:#333333;}
	.st9{opacity:0.81;fill:#DAEEF2;}
	.st10{opacity:0.81;fill:#FFFFFF;}
	.st11{fill:none;stroke:#333333;stroke-width:3;stroke-miterlimit:10;}
	.st12{fill:none;stroke:#DAEEF2;stroke-width:10;stroke-miterlimit:10;}
	.st13{fill:#D13924;}
	.st14{fill:#E8533A;}
	.st15{fill:#CC7C40;}
	.st16{fill:#4C2A0F;}
	.st17{fill:#FBB03B;}
	.st18{fill:#FFC06C;}
	.st19{fill:none;stroke:#FFFFFF;stroke-width:1.9633;stroke-miterlimit:10;}
	.st20{fill:#CCCCCC;}
	.st21{fill:none;stroke:#FBB03B;stroke-width:3.2722;stroke-miterlimit:10;}
	.st22{fill:none;}
</style>
<g
   id="g264">
	<path
   class="st0"
   d="M1151.4,370.6L1151.4,370.6c1.7,10-5.1,19.6-15.1,21.3l-135.4,23c-10,1.7-19.6-5.1-21.3-15.1v0   c-1.7-10,5.1-19.6,15.1-21.3l135.4-23C1140.2,353.7,1149.7,360.5,1151.4,370.6z"
   id="path4" />
	<path
   class="st0"
   d="M1132.8,391.8L1132.8,391.8c-10.1-1-17.5-10-16.5-20.2l13.6-136.7c1-10.1,10-17.5,20.2-16.5h0   c10.1,1,17.5,10,16.5,20.2L1153,375.2C1152,385.4,1142.9,392.8,1132.8,391.8z"
   id="path6" />
	<g
   id="g32">
		<path
   class="st1"
   d="M1176.7,229l0.8-13.5l-43.4-2.9c-4.6-0.3-8.6,3.2-8.9,7.8l-0.8,11.4c-0.3,4.9,3.4,9.2,8.3,9.5l27.8,1.9    C1168.9,243.7,1176.2,237.4,1176.7,229z"
   id="path8" />
		<path
   class="st1"
   d="M1131.6,224.5L1131.6,224.5c3.7,0.3,7-2.6,7.2-6.3l1.1-15.8c0.3-3.7-2.6-7-6.3-7.2l0,0    c-3.7-0.3-7,2.6-7.2,6.3l-1.1,15.8C1125,221,1127.8,224.2,1131.6,224.5z"
   id="path10" />
		<path
   class="st2"
   d="M1144.4,223.8l0.5,0c3.9,0.3,7.3-2.6,7.5-6.5l1-15.1c0.3-3.9-2.7-7.1-6.6-7.3l-0.5,0    c-3.9-0.3-7.2,2.5-7.5,6.4l-1,15.1C1137.6,220.3,1140.5,223.6,1144.4,223.8z"
   id="path12" />
		<path
   class="st1"
   d="M1145.4,222.5L1145.4,222.5c3.7,0.3,7-2.6,7.2-6.3l1.1-15.8c0.3-3.7-2.6-7-6.3-7.2l0,0    c-3.7-0.3-7,2.6-7.2,6.3l-1.1,15.8C1138.8,219,1141.6,222.3,1145.4,222.5z"
   id="path14" />
		<path
   class="st2"
   d="M1169.9,225L1169.9,225c3.7,0.3,7-2.6,7.2-6.3l1-14.5l-13.5-0.9l-1,14.5    C1163.3,221.5,1166.2,224.7,1169.9,225z"
   id="path16" />
		<path
   class="st1"
   d="M1170.7,223.6L1170.7,223.6c3.4,0.2,6.4-2.4,6.6-5.8l1-14.1c0.2-3.4-2.4-6.4-5.8-6.6l0,0    c-3.4-0.2-6.4,2.4-6.6,5.8l-1,14.1C1164.7,220.4,1167.3,223.4,1170.7,223.6z"
   id="path18" />
		<path
   class="st2"
   d="M1157.8,225.9l0.7,0c3.9,0.3,7.3-2.7,7.6-6.6l1-15.1c0.3-3.9-2.7-7.3-6.6-7.6l-0.7,0    c-3.9-0.3-7.3,2.7-7.6,6.6l-1,15.1C1150.9,222.2,1153.9,225.6,1157.8,225.9z"
   id="path20" />
		<path
   class="st1"
   d="M1158.4,224.5L1158.4,224.5c3.4,0.2,6.4-2.4,6.6-5.8l1.1-16.9c0.2-3.4-2.4-6.4-5.8-6.6l0,0    c-3.4-0.2-6.4,2.4-6.6,5.8l-1.1,16.9C1152.4,221.3,1155,224.3,1158.4,224.5z"
   id="path22" />
		<path
   class="st2"
   d="M1135.7,239.4L1135.7,239.4c1.5-0.2,3.6-2.2,3.5-4.8l-1.3-15.5c-0.3-3.7-3.6-6.5-7.3-6.2l0,0    c-3.7,0.3-6.5,3.6-6.2,7.3l1.3,15.5C1126,239.4,1132,239.7,1135.7,239.4z"
   id="path24" />
		<path
   class="st2"
   d="M1123.4,218.7l0,1c-0.1,4.2,2.5,7.7,5.8,7.8l16.2,0.4c4.5-0.2,8.1-3.1,8.2-7.3l0-1c0.1-4.2-3.4-7.8-8.6-7.7    c0,0-4.5-0.2-10.5,0.8C1130.2,213.3,1123.5,214.5,1123.4,218.7z"
   id="path26" />
		<path
   class="st1"
   d="M1123.5,219.1L1123.5,219.1c-0.1,3.8,2.8,6.9,6.6,7l15,0.3c3.8,0.1,6.9-2.8,7-6.6v0c0.1-3.8-2.8-6.9-6.6-7    l-15-0.3C1126.8,212.4,1123.6,215.3,1123.5,219.1z"
   id="path28" />
		<path
   class="st1"
   d="M1131.5,241.1L1131.5,241.1c3.7-0.3,6.5-3.6,6.2-7.3l-1.3-15.5c-0.3-3.7-3.6-6.5-7.3-6.2h0    c-3.7,0.3-6.5,3.6-6.2,7.3l1.3,15.5C1124.5,238.7,1127.8,241.4,1131.5,241.1z"
   id="path30" />
	</g>
	<path
   class="st3"
   d="M963.4,660.9h-1.3c-41.6,0-75.4-34.2-75.4-75.8v-0.2h152v0.2C1038.7,626.8,1005,660.9,963.4,660.9z"
   id="path34" />
	<path
   class="st0"
   d="M767.6,376.6L767.6,376.6c-1.7,10,5.1,19.6,15.1,21.3l135.4,23c10,1.7,19.6-5.1,21.3-15.1v0   c1.7-10-5.1-19.6-15.1-21.3l-135.4-23C778.8,359.7,769.3,366.5,767.6,376.6z"
   id="path36" />
	<path
   class="st0"
   d="M787.8,397.6L787.8,397.6c10.1-1,17.5-10.1,16.5-20.2l-13.8-136.7c-1-10.1-10.1-17.5-20.2-16.5l0,0   c-10.1,1-17.5,10.1-16.5,20.2l13.8,136.7C768.6,391.3,777.6,398.7,787.8,397.6z"
   id="path38" />
	<polygon
   class="st3"
   points="934.1,926.9 897.7,926.9 877.2,755.9 886.7,584.9 948.7,584.9 926.4,755.9  "
   id="polygon40" />
	<polygon
   class="st3"
   points="991.5,926.9 1026.7,926.9 1047.7,755.9 1038.7,584.9 975.7,584.9 998.6,755.9  "
   id="polygon42" />
	<path
   class="st0"
   d="M933.9,377.3h57.7c26,0,47.2,21.1,47.2,47.2v160.4h-152V424.5C886.7,398.4,907.8,377.3,933.9,377.3z"
   id="path44" />
	<rect
   x="931.9"
   y="377.3"
   class="st4"
   width="58"
   height="207.6"
   id="rect46" />
	<path
   class="st5"
   d="M986.5,389.7c0,13.4-10.9,24.5-24.3,24.5h0H962c-13.4,0-24.5-11.1-24.5-24.5v-21.5h49V389.7z"
   id="path48" />
	<rect
   x="937.5"
   y="348.2"
   class="st1"
   width="49"
   height="46"
   id="rect50" />
	<path
   class="st6"
   d="M938.5,218.6c0-5.6-2.6-10.7-6.6-14c0.4-1.3,0.6-2.7,0.6-4.2c0-8.4-6.8-15.2-15.2-15.2c-5.5,0-10.4,3-13,7.4   c-2.8-1.8-6.1-2.8-9.6-2.8c-10.1,0-18.2,8.2-18.2,18.2c0,1.9,0.3,3.7,0.8,5.3c-7,2.6-12,9.3-12,17.2c0,7.4,4.3,13.7,10.5,16.6   c-1.6,2.4-2.5,5.3-2.5,8.4c0,8.4,6.8,15.2,15.2,15.2c7.7,0,14-5.7,15-13.1c1.5,0.3,3,0.5,4.5,0.5c11.8,0,21.4-9.6,21.4-21.4   c0-0.8-0.1-1.6-0.1-2.4C934.7,231.3,938.5,225.4,938.5,218.6z"
   id="path52" />
	<path
   class="st6"
   d="M1069.5,237.3c0,5.6-2.6,10.7-6.6,14c0.4,1.3,0.6,2.7,0.6,4.2c0,8.4-6.8,15.2-15.2,15.2c-5.5,0-10.4-3-13-7.4   c-2.8,1.8-6.1,2.8-9.6,2.8c-10.1,0-18.2-8.2-18.2-18.2c0-1.9,0.3-3.7,0.8-5.3c-7-2.6-12-9.3-12-17.2c0-7.4,4.3-13.7,10.5-16.6   c-1.6-2.4-2.5-5.3-2.5-8.4c0-8.4,6.8-15.2,15.2-15.2c7.7,0,14,5.7,15,13.1c1.5-0.3,3-0.5,4.5-0.5c11.8,0,21.4,9.6,21.4,21.4   c0,0.8-0.1,1.6-0.1,2.4C1065.7,224.6,1069.5,230.6,1069.5,237.3z"
   id="path54" />
	<path
   class="st2"
   d="M937.5,364.1c9.5,4.1,19.4,6.3,28.9,6.3c6.6,0,13.4-1.1,20.1-3.1v-15.5h-49V364.1z"
   id="path56" />
	<path
   class="st1"
   d="M966.4,359.3c-31.9,0-70.3-27.9-70.3-66.9v-42.8c0-32.9,26.7-59.6,59.6-59.6h21.6c32.9,0,59.6,26.7,59.6,59.6   v42.8C1037.1,331.4,998.3,359.3,966.4,359.3z"
   id="path58" />
	<circle
   class="st1"
   cx="895.8"
   cy="260.6"
   r="20"
   id="circle60" />
	<path
   class="st7"
   d="M891.8,263.4c0-3.9,3.2-7.1,7.1-7.1c1.1,0,2.1,0.2,3,0.7c-1.2-2.1-3.5-3.5-6.1-3.5c-3.9,0-7.1,3.2-7.1,7.1   c0,2.8,1.7,5.3,4.1,6.4C892.1,266,891.8,264.7,891.8,263.4z"
   id="path62" />
	<ellipse
   class="st8"
   cx="943.6"
   cy="263"
   rx="4.6"
   ry="8.1"
   id="ellipse64" />
	<ellipse
   class="st8"
   cx="1001.7"
   cy="263"
   rx="4.6"
   ry="8.1"
   id="ellipse66" />
	<circle
   class="st1"
   cx="1038.6"
   cy="260.6"
   r="20"
   id="circle68" />
	<path
   class="st7"
   d="M1045.2,263.4c0-3.9-3.2-7.1-7.1-7.1c-1.1,0-2.1,0.2-3,0.7c1.2-2.1,3.5-3.5,6.1-3.5c3.9,0,7.1,3.2,7.1,7.1   c0,2.8-1.7,5.3-4.1,6.4C1044.9,266,1045.2,264.7,1045.2,263.4z"
   id="path70" />
	<path
   class="st7"
   d="M949.5,299.5c0,12.5,10.1,22.6,22.6,22.6h0c12.5,0,22.6-10.1,22.6-22.6"
   id="path72" />
	<path
   class="st6"
   d="M998.6,310.8h-54c-2.3,0-3.5-2.8-1.9-4.4l13.2-14.1c1.7-1.8,4-2.8,6.4-2.8h18.6c2.4,0,4.7,1,6.4,2.8l13.2,14.1   C1002.1,308,1000.9,310.8,998.6,310.8z"
   id="path74" />
	<path
   class="st7"
   d="M965.6,270.4v20.5c0,0.9,1.1,1.6,2.1,1.6h12.1c3.3,0,5.1-3.8,3-6.4l-14-16.9   C967.8,268.1,965.6,268.8,965.6,270.4z"
   id="path76" />
	<circle
   class="st9"
   cx="955.9"
   cy="280.7"
   r="10.7"
   id="circle78" />
	<g
   id="g84">
		<path
   class="st10"
   d="M960.2,270.9c-1.3-0.6-2.8-0.9-4.4-0.9c-5.9,0-10.7,4.8-10.7,10.7c0,2.7,1,5.2,2.7,7.1    C951.8,282.2,957.1,274.9,960.2,270.9z"
   id="path80" />
		<path
   class="st10"
   d="M955.5,291.3c0.1,0,0.2,0,0.3,0c5.9,0,10.7-4.8,10.7-10.7c0-1.2-0.2-2.3-0.5-3.3L955.5,291.3z"
   id="path82" />
	</g>
	<circle
   class="st9"
   cx="991.9"
   cy="280.7"
   r="10.7"
   id="circle86" />
	<g
   id="g92">
		<path
   class="st10"
   d="M996.2,270.9c-1.3-0.6-2.8-0.9-4.4-0.9c-5.9,0-10.7,4.8-10.7,10.7c0,2.7,1,5.2,2.7,7.1    C987.8,282.2,993.1,274.9,996.2,270.9z"
   id="path88" />
		<path
   class="st10"
   d="M991.5,291.3c0.1,0,0.2,0,0.3,0c5.9,0,10.7-4.8,10.7-10.7c0-1.2-0.2-2.3-0.5-3.3L991.5,291.3z"
   id="path90" />
	</g>
	<circle
   class="st11"
   cx="955.9"
   cy="280.7"
   r="10.7"
   id="circle94" />
	<circle
   class="st11"
   cx="991.9"
   cy="280.7"
   r="10.7"
   id="circle96" />
	<path
   class="st11"
   d="M964.6,274.6c0,0,3.3-6.7,9.2-6.7s9.2,6.7,9.2,6.7"
   id="path98" />
	<path
   class="st12"
   d="M929.6,250.5c0,0,6.9-4.2,13.9-4.2c7,0,12,2.7,12,2.7"
   id="path100" />
	<path
   class="st12"
   d="M1014.5,250.5c0,0-6.9-4.2-13.9-4.2c-7,0-12,2.7-12,2.7"
   id="path102" />
	<g
   id="g110">
		<path
   class="st13"
   d="M959.3,394.3l-17.6,5.7c-2.5,0.8-5.1-1-5.1-3.7v-12c0-2.6,2.6-4.5,5.1-3.7l17.6,5.7V394.3z"
   id="path104" />
		<path
   class="st13"
   d="M965.3,394.3l17.6,5.7c2.5,0.8,5.1-1,5.1-3.7v-12c0-2.6-2.6-4.5-5.1-3.7l-17.6,5.7V394.3z"
   id="path106" />
		<path
   class="st14"
   d="M965,396.2h-6c-1.7,0-3.1-1.4-3.1-3.1v-5.6c0-1.7,1.4-3.1,3.1-3.1h6c1.7,0,3.1,1.4,3.1,3.1v5.6    C968.1,394.8,966.7,396.2,965,396.2z"
   id="path108" />
	</g>
	<path
   class="st15"
   d="M932,377.3l-14.4,1.8l-23.3,48.1l18.5-3l-19.2,16.6c0,0,4.5,5.5,19.2,31.5c14.7,26,19.2,40.9,19.2,40.9V377.3   z"
   id="path112" />
	<rect
   x="886.7"
   y="569"
   class="st0"
   width="45.2"
   height="59.5"
   id="rect114" />
	<path
   class="st15"
   d="M990,377.3l14.2,1.8l23.2,48.1l-18.6-3l19.2,16.6c0,0-4.3,5.5-19,31.5c-14.7,26-19,40.9-19,40.9V377.3z"
   id="path116" />
	<path
   class="st16"
   d="M991.5,926.6l-4.6,37.9c-0.3,2.2,1.4,4.1,3.6,4.1h15.9c2,0,3.7-1.6,3.7-3.7v-3.6c0,0,15.1,7.3,22.3,7.3   s22.2-0.3,31.9-0.3c6.4,0,14.4-2.2,19-3.7c2.2-0.7,3.5-3,3-5.3l-1.7-7.1c-1.4-5.9-7.3-9.6-13.2-8.3l0,0c-3.9,0.9-8,0.4-11.6-1.4   l-33.1-16.1H991.5z"
   id="path118" />
	<path
   class="st16"
   d="M934.1,926.6l4.6,37.9c0.3,2.2-1.4,4.1-3.6,4.1h-15.9c-2,0-3.7-1.6-3.7-3.7v-3.6c0,0-15.1,7.3-22.3,7.3   s-22.2-0.3-31.9-0.3c-6.4,0-14.4-2.2-19-3.7c-2.2-0.7-3.5-3-3-5.3l1.7-7.1c1.4-5.9,7.3-9.6,13.2-8.3l0,0c3.9,0.9,8,0.4,11.6-1.4   l33.1-16.1H934.1z"
   id="path120" />
	<rect
   x="989.9"
   y="569.7"
   class="st0"
   width="48.8"
   height="59.5"
   id="rect122" />
	<g
   id="g148">
		<path
   class="st1"
   d="M745.3,236.9l-1.9-13.4l43.1-6.3c4.6-0.7,8.8,2.5,9.5,7.1l1.6,11.3c0.7,4.9-2.7,9.4-7.5,10.1l-27.5,4    C754.2,251,746.5,245.2,745.3,236.9z"
   id="path124" />
		<path
   class="st1"
   d="M789.7,229L789.7,229c-3.7,0.5-7.2-2-7.7-5.7l-2.3-15.6c-0.5-3.7,2-7.2,5.7-7.7l0,0c3.7-0.5,7.2,2,7.7,5.7    l2.3,15.6C796,225,793.4,228.4,789.7,229z"
   id="path126" />
		<path
   class="st2"
   d="M776.8,229.3l-0.5,0.1c-3.9,0.6-7.4-2.1-8-5.9l-2.2-14.9c-0.6-3.9,2.1-7.3,6-7.8l0.5-0.1    c3.9-0.6,7.4,1.9,8,5.8l2.2,15C783.4,225.3,780.7,228.8,776.8,229.3z"
   id="path128" />
		<path
   class="st1"
   d="M775.8,228.1L775.8,228.1c-3.7,0.5-7.2-2-7.7-5.7l-2.3-15.6c-0.5-3.7,2-7.2,5.7-7.7h0c3.7-0.5,7.2,2,7.7,5.7    l2.3,15.6C782.1,224.1,779.5,227.6,775.8,228.1z"
   id="path130" />
		<path
   class="st2"
   d="M751.8,232.4L751.8,232.4c-3.7,0.5-7.1-2-7.7-5.7l-2.1-14.4l13.4-1.9l2.1,14.4    C758,228.5,755.5,231.9,751.8,232.4z"
   id="path132" />
		<path
   class="st1"
   d="M750.8,231.1L750.8,231.1c-3.4,0.5-6.6-1.9-7.1-5.3l-2-13.9c-0.5-3.4,1.9-6.6,5.3-7.1l0,0    c3.4-0.5,6.6,1.9,7.1,5.3l2,13.9C756.6,227.5,754.2,230.6,750.8,231.1z"
   id="path134" />
		<path
   class="st2"
   d="M763.6,232.4l-0.7,0.1c-3.9,0.6-7.5-2.1-8.1-6l-2.2-15c-0.6-3.9,2.1-7.5,6-8.1l0.7-0.1c3.9-0.6,7.5,2.1,8.1,6    l2.2,15C770.2,228.2,767.5,231.9,763.6,232.4z"
   id="path136" />
		<path
   class="st1"
   d="M763.2,231.1L763.2,231.1c-3.4,0.5-6.6-1.9-7.1-5.3l-2.4-16.8c-0.5-3.4,1.9-6.6,5.3-7.1v0    c3.4-0.5,6.6,1.9,7.1,5.3l2.4,16.8C768.9,227.4,766.6,230.6,763.2,231.1z"
   id="path138" />
		<path
   class="st2"
   d="M786.7,244.1L786.7,244.1c-1.5-0.1-3.8-1.9-3.9-4.5l0.1-15.5c0-3.8,3.1-6.8,6.8-6.8l0,0    c3.8,0,6.8,3.1,6.8,6.8l-0.1,15.5C796.3,243.4,790.4,244.1,786.7,244.1z"
   id="path140" />
		<path
   class="st2"
   d="M797.4,222.6l0.1,1c0.5,4.2-1.9,7.9-5.2,8.3l-16.1,1.6c-4.5,0.2-8.3-2.5-8.8-6.7l-0.1-1c-0.5-4.2,2.8-8,8-8.4    c0,0,4.4-0.6,10.5,0C790.2,217.8,796.9,218.4,797.4,222.6z"
   id="path142" />
		<path
   class="st1"
   d="M797.6,223L797.6,223c0.4,3.7-2.3,7.1-6,7.5l-14.9,1.5c-3.7,0.4-7.1-2.3-7.5-6v0c-0.4-3.7,2.3-7.1,6-7.5    l14.9-1.5C793.8,216.5,797.2,219.2,797.6,223z"
   id="path144" />
		<path
   class="st1"
   d="M791,245.6L791,245.6c-3.8,0-6.8-3.1-6.8-6.8l0.1-15.5c0-3.8,3.1-6.8,6.8-6.8l0,0c3.8,0,6.8,3.1,6.8,6.8    l-0.1,15.5C797.8,242.6,794.8,245.6,791,245.6z"
   id="path146" />
	</g>
	<g
   id="g262">
		<circle
   class="st6"
   cx="1086.7"
   cy="198.2"
   r="4.7"
   id="circle150" />
		<path
   class="st17"
   d="M1087.9,123.3c-0.3,0-0.7,0-1.1,0c-0.3,0-0.7,0-1,0c-17.1,0.7-29.9,19.1-22.3,34.5l0.3,0.7    c4,6.9,9.3,5.1,9.3,12.9v5.6h27.7v-5.6c0-7.8,4.7-6.2,8.6-12.8l0.4-0.8C1117.2,142.3,1105,124,1087.9,123.3z"
   id="path152" />
		<g
   id="g156">
			<path
   class="st18"
   d="M1087.9,123.3c-0.3,0-0.7,0-1.1,0c-0.3,0-0.7,0-1,0c-7.5,0.3-14.2,4-18.7,9.4c4.2-3.5,9.5-5.8,15.3-6     c0.3,0,0.7,0,1,0c0.4,0,0.7,0,1.1,0c17.1,0.7,29.3,19,21.9,34.4l-0.4,0.8c-0.3,0.5-0.6,1-0.9,1.4c1.4-1.1,2.9-2.4,4.3-4.8     l0.4-0.8C1117.2,142.3,1105,124,1087.9,123.3z"
   id="path154" />
		</g>
		<path
   class="st19"
   d="M1089.5,175c-0.5-4.4-1-8.8-0.8-13.3s1.1-8.9,3.2-12.8c0.5-1,1.2-2,2.1-2.6c1.5-1.1,3.8-1.1,5.3,0.1    c1.5,1.1,2.1,3.3,1.5,5.1c-0.6,1.7-2.3,2.9-4,3.7c-3.4,1.5-17.7,1.5-21,0c-1.7-0.8-3.3-2-4-3.7c-0.6-1.8,0-3.9,1.5-5.1    c1.5-1.1,3.8-1.2,5.3-0.1c0.9,0.7,1.6,1.6,2.1,2.6c2.1,3.9,3,8.4,3.2,12.8s-0.3,8.9-0.8,13.3"
   id="path158" />
		<path
   class="st20"
   d="M1096.9,198.2h-19.8c-1.6,0-4.1-1.2-4.1-2.7l0,0v-19.9c0-1.1,0.9-1.9,1.9-1.9h24.1c1.1,0,1.9,0.9,1.9,1.9    v19.9v0.1C1101,197,1098.5,198.2,1096.9,198.2z"
   id="path160" />
		<path
   class="st6"
   d="M1101.1,176.9l-29.7,3.6c-1.3,0.2-2.4-0.7-2.6-2l-0.1-0.4c-0.2-1.3,0.7-2.4,2-2.6l29.7-3.6    c1.3-0.2,2.4,0.7,2.6,2l0.1,0.4C1103.2,175.6,1102.3,176.8,1101.1,176.9z"
   id="path162" />
		<path
   class="st6"
   d="M1102.1,185.3l-29.7,3.6c-1.3,0.2-2.4-0.7-2.6-2l-0.1-0.4c-0.2-1.3,0.7-2.4,2-2.6l29.7-3.6    c1.3-0.2,2.4,0.7,2.6,2l0.1,0.4C1104.2,184,1103.3,185.1,1102.1,185.3z"
   id="path164" />
		<path
   class="st6"
   d="M1103.1,193.6l-29.7,3.6c-1.3,0.2-2.4-0.7-2.6-2l-0.1-0.4c-0.2-1.3,0.7-2.4,2-2.6l29.7-3.6    c1.3-0.2,2.4,0.7,2.6,2l0.1,0.4C1105.2,192.3,1104.3,193.5,1103.1,193.6z"
   id="path166" />
		<g
   id="g260">
			<g
   id="g258">
				<g
   id="g256">
					<g
   id="g174">
						<line
   class="st21"
   x1="1055.6"
   y1="173.6"
   x2="1062.9"
   y2="167.3"
   id="line168" />
						<line
   class="st21"
   x1="1055.6"
   y1="173.6"
   x2="1062.9"
   y2="167.3"
   id="line170" />
						<path
   class="st22"
   d="M1059.9,155.4c0,0,0.1,0.2,0.2,0.5c0.1,0.3,0.2,0.7,0.4,1.2c0.4,1,0.9,2.3,1.6,3.5        c0.7,1.2,1.5,2.4,2.1,3.3c0.7,0.8,1.1,1.4,1.1,1.4l-11.2,9.5c0,0-0.7-0.8-1.7-2.1c-1-1.3-2.2-3.1-3.2-5        c-1.1-1.9-1.9-3.9-2.5-5.4c-0.3-0.8-0.5-1.4-0.7-1.8c-0.1-0.4-0.2-0.7-0.2-0.7L1059.9,155.4z"
   id="path172" />
					</g>
					<g
   id="g182">
						<line
   class="st21"
   x1="1047.1"
   y1="157.5"
   x2="1056.4"
   y2="155"
   id="line176" />
						<line
   class="st21"
   x1="1047.1"
   y1="157.5"
   x2="1056.4"
   y2="155"
   id="line178" />
						<path
   class="st22"
   d="M1058.9,143c0,0-0.1,0.7-0.2,1.8c-0.1,1.1-0.1,2.5-0.1,3.9c0.1,1.4,0.3,2.8,0.5,3.9        c0.1,0.5,0.2,1,0.3,1.3c0.1,0.3,0.1,0.5,0.1,0.5l-14.2,3.8c0,0-0.1-0.3-0.2-0.7c-0.1-0.5-0.3-1.1-0.4-1.9        c-0.3-1.6-0.6-3.7-0.8-5.9c-0.1-2.2-0.1-4.3,0.1-5.9c0.2-1.6,0.3-2.7,0.3-2.7L1058.9,143z"
   id="path180" />
					</g>
					<g
   id="g190">
						<line
   class="st21"
   x1="1046.5"
   y1="139.4"
   x2="1056"
   y2="141.1"
   id="line184" />
						<line
   class="st21"
   x1="1046.5"
   y1="139.4"
   x2="1056"
   y2="141.1"
   id="line186" />
						<path
   class="st22"
   d="M1063.3,131.3c0,0-0.1,0.1-0.3,0.4c-0.2,0.3-0.5,0.6-0.7,1.1c-0.5,0.9-1.2,2.2-1.7,3.5        c-0.1,0.3-0.3,0.7-0.4,1c-0.1,0.3-0.2,0.7-0.3,1c-0.2,0.6-0.4,1.2-0.5,1.7c-0.2,1-0.3,1.7-0.3,1.7l-14.4-2.7        c0,0,0.2-1.1,0.5-2.6c0.2-0.8,0.5-1.7,0.8-2.6c0.2-0.5,0.3-1,0.5-1.5c0.2-0.5,0.4-1,0.6-1.5c0.8-2,1.8-3.9,2.6-5.3        c0.4-0.7,0.8-1.3,1-1.7c0.3-0.4,0.4-0.6,0.4-0.6L1063.3,131.3z"
   id="path188" />
					</g>
					<g
   id="g198">
						<line
   class="st21"
   x1="1053.7"
   y1="122.7"
   x2="1061.5"
   y2="128.4"
   id="line192" />
						<line
   class="st21"
   x1="1053.7"
   y1="122.7"
   x2="1061.5"
   y2="128.4"
   id="line194" />
						<path
   class="st22"
   d="M1072.4,122.7c0,0-0.2,0.1-0.4,0.2c-0.3,0.2-0.6,0.4-1.1,0.7c-0.4,0.3-1,0.6-1.5,1.1        c-0.5,0.4-1.1,0.9-1.6,1.3c-0.5,0.5-1,1-1.5,1.5c-0.5,0.5-0.9,0.9-1.2,1.4c-0.3,0.4-0.6,0.8-0.8,1c-0.2,0.2-0.3,0.4-0.3,0.4        l-11.8-8.7c0,0,0.2-0.2,0.5-0.6c0.3-0.4,0.7-0.9,1.2-1.5c0.5-0.6,1.1-1.4,1.8-2.1c0.7-0.7,1.5-1.5,2.2-2.2        c0.8-0.7,1.7-1.4,2.4-2c0.8-0.7,1.6-1.1,2.2-1.6c0.7-0.5,1.2-0.8,1.6-1.1c0.4-0.2,0.6-0.4,0.6-0.4L1072.4,122.7z"
   id="path196" />
					</g>
					<g
   id="g206">
						<line
   class="st21"
   x1="1067.4"
   y1="110.8"
   x2="1072"
   y2="119.3"
   id="line200" />
						<line
   class="st21"
   x1="1067.4"
   y1="110.8"
   x2="1072"
   y2="119.3"
   id="line202" />
						<path
   class="st22"
   d="M1084.3,118.9c0,0-0.7,0.1-1.8,0.2c-0.5,0.1-1.1,0.2-1.8,0.4c-0.7,0.1-1.3,0.3-2,0.5        c-0.7,0.2-1.4,0.4-2,0.6c-0.6,0.3-1.2,0.5-1.7,0.7c-0.2,0.1-0.5,0.2-0.7,0.3c-0.2,0.1-0.4,0.2-0.5,0.3        c-0.3,0.2-0.4,0.2-0.4,0.2l-7-12.9c0,0,0.2-0.1,0.6-0.4c0.2-0.1,0.5-0.2,0.7-0.4c0.3-0.1,0.6-0.3,1-0.4        c0.7-0.3,1.6-0.7,2.5-1.1c0.9-0.4,2-0.7,3-1c1-0.4,2.1-0.6,3.1-0.8c1-0.2,1.9-0.4,2.7-0.5c1.6-0.2,2.7-0.3,2.7-0.3        L1084.3,118.9z"
   id="path204" />
					</g>
					<g
   id="g214">
						<line
   class="st21"
   x1="1085"
   y1="105.9"
   x2="1085.4"
   y2="115.6"
   id="line208" />
						<line
   class="st21"
   x1="1085"
   y1="105.9"
   x2="1085.4"
   y2="115.6"
   id="line210" />
						<path
   class="st22"
   d="M1096.7,120.5c0,0-0.2-0.1-0.5-0.2c-0.3-0.1-0.7-0.2-1.2-0.4c-0.5-0.1-1.1-0.4-1.7-0.5        c-0.7-0.1-1.3-0.3-2-0.4c-0.7-0.1-1.4-0.1-2.1-0.2c-0.7-0.1-1.3-0.1-1.8-0.1c-1.1,0-1.8,0-1.8,0l-0.7-14.7c0,0,1.1,0,2.7,0        c0.8,0,1.7,0,2.7,0.1c1,0.1,2.1,0.2,3.1,0.3c1.1,0.2,2.1,0.4,3.1,0.6c1,0.2,1.9,0.5,2.7,0.7c0.8,0.2,1.4,0.4,1.9,0.6        c0.4,0.1,0.7,0.3,0.7,0.3L1096.7,120.5z"
   id="path212" />
					</g>
					<g
   id="g222">
						<line
   class="st21"
   x1="1102.8"
   y1="109.2"
   x2="1099.1"
   y2="118"
   id="line216" />
						<line
   class="st21"
   x1="1102.8"
   y1="109.2"
   x2="1099.1"
   y2="118"
   id="line218" />
						<path
   class="st22"
   d="M1107.1,127.4c0,0-0.5-0.5-1.3-1.2c-0.4-0.4-0.9-0.7-1.4-1.2c-0.3-0.2-0.5-0.4-0.8-0.7        c-0.3-0.2-0.6-0.4-0.9-0.6c-0.6-0.4-1.2-0.8-1.7-1.1c-0.6-0.3-1.1-0.6-1.6-0.9c-0.5-0.3-0.9-0.4-1.2-0.5        c-0.3-0.1-0.5-0.2-0.5-0.2l5.7-13.5c0,0,0.2,0.1,0.7,0.3c0.4,0.2,1.1,0.4,1.8,0.8c0.7,0.4,1.5,0.8,2.4,1.3        c0.9,0.5,1.8,1.1,2.7,1.7c0.4,0.3,0.9,0.6,1.3,0.9c0.4,0.3,0.8,0.7,1.2,1c0.8,0.6,1.5,1.2,2.1,1.8c1.2,1.1,1.9,1.9,1.9,1.9        L1107.1,127.4z"
   id="path220" />
					</g>
					<g
   id="g230">
						<line
   class="st21"
   x1="1117.6"
   y1="119.8"
   x2="1110.4"
   y2="126.1"
   id="line224" />
						<line
   class="st21"
   x1="1117.6"
   y1="119.8"
   x2="1110.4"
   y2="126.1"
   id="line226" />
						<path
   class="st22"
   d="M1113.6,138c0,0-0.1-0.2-0.1-0.5c0-0.1-0.1-0.3-0.2-0.5c-0.1-0.2-0.2-0.4-0.3-0.7        c-0.2-0.5-0.5-1.1-0.7-1.7c-0.3-0.6-0.7-1.2-1-1.8c-0.3-0.6-0.7-1.2-1.1-1.8c-0.4-0.5-0.7-1.1-1.1-1.5        c-0.7-0.8-1.1-1.4-1.1-1.4l11-9.7c0,0,0.7,0.8,1.7,2.1c0.5,0.6,1,1.4,1.6,2.2c0.6,0.8,1.2,1.7,1.7,2.7        c0.5,0.9,1.1,1.9,1.5,2.8c0.4,0.9,0.8,1.8,1.1,2.5c0.2,0.4,0.3,0.7,0.4,1c0.1,0.3,0.2,0.6,0.3,0.8c0.1,0.4,0.2,0.7,0.2,0.7        L1113.6,138z"
   id="path228" />
					</g>
					<g
   id="g238">
						<line
   class="st21"
   x1="1126.3"
   y1="135.7"
   x2="1117.1"
   y2="138.4"
   id="line232" />
						<line
   class="st21"
   x1="1126.3"
   y1="135.7"
   x2="1117.1"
   y2="138.4"
   id="line234" />
						<path
   class="st22"
   d="M1114.8,150c0,0,0-0.2,0.1-0.4c0-0.1,0.1-0.3,0.1-0.5c0-0.2,0-0.3,0-0.5c0.1-0.3,0-1,0-1.7        c0-0.7,0-1.4-0.1-2.1c-0.1-0.7-0.2-1.4-0.2-2.1c-0.1-0.7-0.3-1.3-0.4-1.8c-0.1-0.5-0.2-1-0.3-1.3c-0.1-0.3-0.2-0.5-0.2-0.5        l14.1-4c0,0,0.1,0.3,0.2,0.7c0.1,0.5,0.2,1.1,0.4,1.9c0.2,0.8,0.4,1.7,0.5,2.7c0.1,1,0.2,2.1,0.3,3.1c0.1,1.1,0.1,2.1,0.1,3.2        c0,1,0,1.9-0.1,2.9c0,0.5-0.1,0.9-0.1,1.3c-0.1,0.3-0.1,0.6-0.1,0.9c-0.1,0.5-0.1,0.8-0.1,0.8L1114.8,150z"
   id="path236" />
					</g>
					<g
   id="g246">
						<line
   class="st21"
   x1="1127"
   y1="154.2"
   x2="1117.7"
   y2="152"
   id="line240" />
						<line
   class="st21"
   x1="1127"
   y1="154.2"
   x2="1117.7"
   y2="152"
   id="line242" />
						<path
   class="st22"
   d="M1110.1,162.9c0,0,0.4-0.7,0.9-1.8c0.5-1.1,1.2-2.6,1.7-4c0.3-0.7,0.6-1.5,0.8-2.2        c0.2-0.7,0.4-1.3,0.6-1.9c0.2-0.5,0.3-1,0.4-1.3c0.1-0.3,0.1-0.5,0.1-0.5l14.3,3.3c0,0-0.1,0.3-0.2,0.7        c-0.1,0.5-0.3,1.1-0.5,1.8c-0.2,0.7-0.5,1.6-0.8,2.5c-0.3,0.9-0.6,1.8-1,2.8c-0.7,1.9-1.5,3.7-2.1,5c-0.6,1.3-1.1,2.2-1.1,2.2        L1110.1,162.9z"
   id="path244" />
					</g>
					<g
   id="g254">
						<line
   class="st21"
   x1="1120.8"
   y1="170.3"
   x2="1112.3"
   y2="165.7"
   id="line248" />
						<line
   class="st21"
   x1="1120.8"
   y1="170.3"
   x2="1112.3"
   y2="165.7"
   id="line250" />
						<path
   class="st22"
   d="M1103.5,172.2c0,0,0,0,0.1-0.1c0.1-0.1,0.2,0,0.4-0.3c0.1-0.1,0.3-0.2,0.4-0.4c0.2-0.2,0.4-0.4,0.5-0.6        c0.4-0.4,0.8-1,1.2-1.5c0.4-0.6,0.8-1.2,1.2-1.8c0.4-0.6,0.7-1.2,1-1.7c0.6-1,1-1.7,1-1.7l13,6.9c0,0-0.5,0.9-1.2,2.2        c-0.4,0.7-0.9,1.4-1.4,2.2c-0.6,0.8-1.1,1.7-1.8,2.6c-0.7,0.9-1.3,1.7-2.1,2.6c-0.4,0.4-0.7,0.8-1.1,1.2        c-0.4,0.4-0.8,0.7-1.2,1.1c-0.7,0.6-1.6,1.2-2.1,1.6c-0.6,0.4-0.9,0.6-0.9,0.6L1103.5,172.2z"
   id="path252" />
					</g>
				</g>
			</g>
		</g>
	</g>
</g>
</svg>