<?xml version="1.0" encoding="UTF-8" standalone="no"?>
<!-- Generator: Adobe Illustrator 19.2.0, SVG Export Plug-In . SVG Version: 6.00 Build 0)  -->

<svg
   xmlns:dc="http://purl.org/dc/elements/1.1/"
   xmlns:cc="http://creativecommons.org/ns#"
   xmlns:rdf="http://www.w3.org/1999/02/22-rdf-syntax-ns#"
   xmlns:svg="http://www.w3.org/2000/svg"
   xmlns="http://www.w3.org/2000/svg"
   xmlns:sodipodi="http://sodipodi.sourceforge.net/DTD/sodipodi-0.dtd"
   xmlns:inkscape="http://www.inkscape.org/namespaces/inkscape"
   version="1.1"
   id="Layer_1"
   x="0px"
   y="0px"
   viewBox="0 0 1920 1080"
   style="enable-background:new 0 0 1920 1080;"
   xml:space="preserve"
   sodipodi:docname="Professor_Thinking_Cartoon.svg"
   inkscape:export-filename="/home/gpetit/Nextcloud/Plateformes/Noise_Planet/Noise_Planet/Kit_pedagogique/Presentation_generale/Images/Professor_Thinking_Cartoon.png"
   inkscape:export-xdpi="96"
   inkscape:export-ydpi="96"
   inkscape:version="0.92.4 (f8dce91, 2019-08-02)"><metadata
   id="metadata1325"><rdf:RDF><cc:Work
       rdf:about=""><dc:format>image/svg+xml</dc:format><dc:type
         rdf:resource="http://purl.org/dc/dcmitype/StillImage" /></cc:Work></rdf:RDF></metadata><defs
   id="defs1323" /><sodipodi:namedview
   pagecolor="#ffffff"
   bordercolor="#666666"
   borderopacity="1"
   objecttolerance="10"
   gridtolerance="10"
   guidetolerance="10"
   inkscape:pageopacity="0"
   inkscape:pageshadow="2"
   inkscape:window-width="898"
   inkscape:window-height="480"
   id="namedview1321"
   showgrid="false"
   inkscape:zoom="0.21851852"
   inkscape:cx="-140.59322"
   inkscape:cy="540"
   inkscape:window-x="2035"
   inkscape:window-y="389"
   inkscape:window-maximized="0"
   inkscape:current-layer="Layer_1" />
<style
   type="text/css"
   id="style1202">
	.st0{fill:#AA6F3D;}
	.st1{fill:#774829;}
	.st2{fill:#A8C4CC;}
	.st3{fill:#FFFFFF;}
	.st4{fill:#F8C09D;}
	.st5{fill:#E6E6E6;}
	.st6{fill:#F6AE8D;}
	.st7{fill:#EF937E;}
	.st8{fill:#333333;}
	.st9{opacity:0.81;fill:#DAEEF2;}
	.st10{opacity:0.81;fill:#FFFFFF;}
	.st11{fill:none;stroke:#333333;stroke-width:3;stroke-miterlimit:10;}
	.st12{fill:none;stroke:#DAEEF2;stroke-width:10;stroke-miterlimit:10;}
	.st13{fill:#D13924;}
	.st14{fill:#E8533A;}
	.st15{fill:#CC7C40;}
	.st16{fill:#4C2A0F;}
	.st17{fill:#F2F2F2;}
	.st18{fill:#999999;}
	.st19{font-family:'MyriadPro-Bold';}
	.st20{font-size:72px;}
</style>
<g
   id="g1318">
	<path
   class="st0"
   d="M924.3,385L924.3,385c-1.5,10.1,5.5,19.4,15.6,20.9l135.9,19.8c10.1,1.5,19.4-5.5,20.9-15.6v0   c1.5-10.1-5.5-19.4-15.6-20.9l-135.9-19.8C935.1,367.9,925.7,374.9,924.3,385z"
   id="path1204" />
	<path
   class="st1"
   d="M897.5,647h-1.3c-41.6,0-75.4-34.2-75.4-75.8V571h152v0.2C972.8,612.9,939.1,647,897.5,647z"
   id="path1206" />
	<polygon
   class="st1"
   points="878.2,913 841.8,913 820.8,571 882.8,571  "
   id="polygon1208" />
	<path
   class="st1"
   d="M927.1,892.9l33.7,9.8l32.1-141c3-13,3.5-26.4,1.6-39.5L972.8,571h-63l34.1,151.7c2.9,12.8,3.4,25.9,1.6,38.9   L927.1,892.9z"
   id="path1210" />
	<path
   class="st0"
   d="M867.9,363.5h57.7c26,0,47.2,21.1,47.2,47.2V571h-152V410.6C820.8,384.6,841.9,363.5,867.9,363.5z"
   id="path1212" />
	<rect
   x="876.9"
   y="363.5"
   class="st2"
   width="58"
   height="207.6"
   id="rect1214" />
	<path
   class="st3"
   d="M931.6,375.9c0,13.4-10.9,24.5-24.3,24.5h0h-0.2c-13.4,0-24.5-11.1-24.5-24.5v-21.5h49V375.9z"
   id="path1216" />
	<rect
   x="882.6"
   y="334.3"
   class="st4"
   width="49"
   height="46"
   id="rect1218" />
	<path
   class="st5"
   d="M905.1,201.2c1.4-5.5,0.2-11-2.8-15.3c0.7-1.2,1.3-2.5,1.6-3.9c2.1-8.1-2.7-16.4-10.9-18.6   c-5.4-1.4-10.8,0.2-14.5,3.8c-2.3-2.4-5.2-4.2-8.6-5.1c-9.7-2.6-19.7,3.3-22.2,13c-0.5,1.8-0.7,3.6-0.6,5.4   c-7.4,0.8-13.9,6-15.9,13.6c-1.9,7.1,0.7,14.3,6,18.8c-2.1,1.9-3.8,4.5-4.6,7.5c-2.1,8.1,2.7,16.4,10.9,18.6   c7.4,1.9,15-1.9,17.9-8.8c1.3,0.7,2.7,1.2,4.2,1.6c11.4,3,23.1-3.8,26.1-15.2c0.2-0.8,0.4-1.6,0.5-2.3   C898.3,212.5,903.4,207.8,905.1,201.2z"
   id="path1220" />
	<path
   class="st5"
   d="M1027.1,252.6c-1.4,5.5-5.2,9.7-10,11.9c0,1.4-0.1,2.8-0.5,4.2c-2.1,8.1-10.5,13-18.6,10.9   c-5.4-1.4-9.3-5.5-10.7-10.4c-3.2,1-6.6,1.1-10,0.2c-9.7-2.6-15.6-12.5-13-22.2c0.5-1.8,1.2-3.5,2.1-5c-6.1-4.3-9.2-12.1-7.2-19.7   c1.9-7.1,7.7-12.1,14.4-13.4c-0.9-2.7-1.1-5.7-0.3-8.7c2.1-8.1,10.5-13,18.6-10.9c7.4,1.9,12.1,9.1,11.2,16.5   c1.5,0.1,3,0.3,4.5,0.7c11.4,3,18.2,14.7,15.2,26.1c-0.2,0.8-0.5,1.5-0.7,2.3C1026.7,239.4,1028.8,246,1027.1,252.6z"
   id="path1222" />
	<path
   class="st6"
   d="M882.6,350.3c9.5,4.1,19.4,6.3,28.9,6.3c6.6,0,13.4-1.1,20.1-3.1V338h-49V350.3z"
   id="path1224" />
	<path
   class="st4"
   d="M903.1,346.1c-30.8-8.1-60.9-44.8-51-82.6l10.9-41.4c8.4-31.9,41-50.9,72.8-42.5l20.9,5.5   c31.9,8.4,50.9,41,42.5,72.8l-10.9,41.4C978.5,337.1,933.9,354.2,903.1,346.1z"
   id="path1226" />
	
		<ellipse
   transform="matrix(0.2539 -0.9672 0.9672 0.2539 416.4104 1005.2932)"
   class="st4"
   cx="859.8"
   cy="232.7"
   rx="20"
   ry="20"
   id="ellipse1228" />
	<path
   class="st7"
   d="M855.2,234.4c1-3.8,4.9-6.1,8.7-5.1c1,0.3,2,0.8,2.7,1.4c-0.7-2.3-2.5-4.3-5-4.9c-3.8-1-7.7,1.3-8.7,5.1   c-0.7,2.7,0.3,5.5,2.3,7.2C854.9,237,854.9,235.7,855.2,234.4z"
   id="path1230" />
	
		<ellipse
   transform="matrix(0.2539 -0.9672 0.9672 0.2539 439.8212 1068.1533)"
   class="st8"
   cx="912.3"
   cy="249"
   rx="8.1"
   ry="4.6"
   id="ellipse1232" />
	
		<ellipse
   transform="matrix(0.2539 -0.9672 0.9672 0.2539 467.4673 1133.4772)"
   class="st8"
   cx="968.4"
   cy="263.7"
   rx="8.1"
   ry="4.6"
   id="ellipse1234" />
	<path
   class="st7"
   d="M937.2,314.3c3.3,0.9,6.5-1.9,6.1-5.3c-0.9-7.2-6-13.4-13.4-15.3v0c-7.4-1.9-14.9,1-19.2,6.8   c-2,2.8-0.6,6.7,2.7,7.6L937.2,314.3z"
   id="path1236" />
	<path
   class="st5"
   d="M953.3,309.2L901,295.5c-2.2-0.6-2.7-3.6-0.7-4.8l16.4-10.2c2-1.3,4.5-1.7,6.9-1l18,4.7   c2.3,0.6,4.3,2.2,5.5,4.3l9.2,17C957.4,307.4,955.5,309.8,953.3,309.2z"
   id="path1238" />
	<path
   class="st7"
   d="M931.6,261.7l-5.2,19.8c-0.2,0.9,0.7,1.9,1.6,2.1l11.7,3.1c3.2,0.8,5.9-2.4,4.5-5.4l-9.3-19.9   C934.3,260.1,932,260.2,931.6,261.7z"
   id="path1240" />
	
		<ellipse
   transform="matrix(0.2539 -0.9672 0.9672 0.2539 425.8375 1090.3877)"
   class="st9"
   cx="919.7"
   cy="269.2"
   rx="10.7"
   ry="10.7"
   id="ellipse1242" />
	<g
   id="g1248">
		<path
   class="st10"
   d="M926.4,260.8c-1.1-0.9-2.5-1.6-4-2c-5.7-1.5-11.6,1.9-13.1,7.6c-0.7,2.6-0.3,5.3,0.8,7.5    C915.4,269.6,922.4,264,926.4,260.8z"
   id="path1244" />
		<path
   class="st10"
   d="M916.7,279.4c0.1,0,0.2,0.1,0.3,0.1c5.7,1.5,11.6-1.9,13.1-7.6c0.3-1.1,0.4-2.3,0.3-3.4L916.7,279.4z"
   id="path1246" />
	</g>
	
		<ellipse
   transform="matrix(0.2539 -0.9672 0.9672 0.2539 442.9533 1130.8301)"
   class="st9"
   cx="954.5"
   cy="278.3"
   rx="10.7"
   ry="10.7"
   id="ellipse1250" />
	<g
   id="g1256">
		<path
   class="st10"
   d="M961.2,270c-1.1-0.9-2.5-1.6-4-2c-5.7-1.5-11.6,1.9-13.1,7.6c-0.7,2.6-0.3,5.3,0.8,7.5    C950.2,278.8,957.2,273.1,961.2,270z"
   id="path1252" />
		<path
   class="st10"
   d="M951.5,288.6c0.1,0,0.2,0.1,0.3,0.1c5.7,1.5,11.6-1.9,13.1-7.6c0.3-1.1,0.4-2.3,0.3-3.4L951.5,288.6z"
   id="path1254" />
	</g>
	
		<ellipse
   transform="matrix(0.2539 -0.9672 0.9672 0.2539 425.8375 1090.3877)"
   class="st11"
   cx="919.7"
   cy="269.2"
   rx="10.7"
   ry="10.7"
   id="ellipse1258" />
	
		<ellipse
   transform="matrix(0.2539 -0.9672 0.9672 0.2539 442.9533 1130.8301)"
   class="st11"
   cx="954.5"
   cy="278.3"
   rx="10.7"
   ry="10.7"
   id="ellipse1260" />
	<path
   class="st11"
   d="M929.7,265.5c0,0,4.9-5.6,10.6-4.1c5.7,1.5,7.2,8.8,7.2,8.8"
   id="path1262" />
	<path
   class="st0"
   d="M855.6,367.2L855.6,367.2c9,4.9,12.3,16.1,7.4,25L797.4,513c-4.9,9-16.1,12.3-25,7.4l0,0   c-9-4.9-12.3-16.1-7.4-25l65.6-120.7C835.4,365.7,846.6,362.4,855.6,367.2z"
   id="path1264" />
	<path
   class="st12"
   d="M927.7,231c0,0-6.3,5-13.3,5.8c-7,0.8-12.2-1.2-12.2-1.2"
   id="path1266" />
	<path
   class="st12"
   d="M962.2,241c0,0,3.7,7.2,9.6,10.9c6,3.7,11.6,4,11.6,4"
   id="path1268" />
	<g
   id="g1276">
		<path
   class="st13"
   d="M904.4,380.5l-17.6,5.7c-2.5,0.8-5.1-1-5.1-3.7v-12c0-2.6,2.6-4.5,5.1-3.7l17.6,5.7V380.5z"
   id="path1270" />
		<path
   class="st13"
   d="M910.4,380.5l17.6,5.7c2.5,0.8,5.1-1,5.1-3.7v-12c0-2.6-2.6-4.5-5.1-3.7l-17.6,5.7V380.5z"
   id="path1272" />
		<path
   class="st14"
   d="M910.1,382.3h-6c-1.7,0-3.1-1.4-3.1-3.1v-5.6c0-1.7,1.4-3.1,3.1-3.1h6c1.7,0,3.1,1.4,3.1,3.1v5.6    C913.2,380.9,911.8,382.3,910.1,382.3z"
   id="path1274" />
	</g>
	<path
   class="st15"
   d="M877,363.5l-14.3,1.8l-23.3,48.1l18.5-3l-19.2,16.6c0,0,4.4,5.5,19.1,31.5s19.1,40.9,19.1,40.9V363.5z"
   id="path1278" />
	<rect
   x="820.8"
   y="555.1"
   class="st0"
   width="45.2"
   height="59.5"
   id="rect1280" />
	<path
   class="st15"
   d="M935,363.5l14.3,1.8l23.3,48.1l-18.5-3l19.2,16.6c0,0-4.4,5.5-19.1,31.5S935,499.3,935,499.3V363.5z"
   id="path1282" />
	<path
   class="st16"
   d="M927,892.9L912.1,928c-0.9,2,0.2,4.4,2.4,5l15.3,4.4c1.9,0.6,4-0.6,4.5-2.5l1-3.5c0,0,12.5,11.2,19.4,13.2   c6.9,2,21.4,5.9,30.7,8.6c6.2,1.8,14.4,1.9,19.3,1.8c2.3-0.1,4.2-1.9,4.3-4.2l0.4-7.3c0.3-6.1-4.3-11.2-10.4-11.6h0   c-4-0.2-7.8-1.8-10.8-4.5l-27.4-24.6L927,892.9z"
   id="path1284" />
	<path
   class="st16"
   d="M842.1,912.8l-4.6,37.9c-0.3,2.2,1.4,4.1,3.6,4.1H857c2,0,3.7-1.6,3.7-3.7v-3.6c0,0,15.1,7.3,22.3,7.3   s22.2-0.3,31.9-0.3c6.4,0,14.4-2.2,19-3.7c2.2-0.7,3.5-3,3-5.3l-1.7-7.1c-1.4-5.9-7.3-9.6-13.2-8.3h0c-3.9,0.9-8,0.4-11.6-1.4   l-33.1-16.1H842.1z"
   id="path1286" />
	<rect
   x="935.2"
   y="555.8"
   class="st0"
   width="37.6"
   height="59.5"
   id="rect1288" />
	<path
   class="st0"
   d="M780.9,485L780.9,485c10.2-0.3,18.7,7.6,19.1,17.8l5.2,131.4l-36.9,1.2L763,504   C762.7,493.9,770.7,485.3,780.9,485z"
   id="path1290" />
	<path
   class="st0"
   d="M1083,426.1L1083,426.1c10.1-1.6,17-11,15.4-21.1l-21-135.8c-1.6-10.1-11-17-21.1-15.4l0,0   c-10.1,1.6-17,11-15.4,21.1l21,135.8C1063.5,420.8,1072.9,427.7,1083,426.1z"
   id="path1292" />
	<g
   id="g1306">
		<path
   class="st4"
   d="M1082.1,268.7l-7-7.6c-3-3.3-8.1-3.5-11.4-0.5l-25.9,23.7c-3.3,3-3.5,8.1-0.5,11.4l7,7.6    c3.2,3.5,8.7,3.7,12.2,0.5l25.1-23C1085.1,277.6,1085.4,272.2,1082.1,268.7z"
   id="path1294" />
		<path
   class="st4"
   d="M1049.6,299.6L1049.6,299.6c2.6-2.4,2.8-6.4,0.4-9l-40.1-43.9c-2.4-2.6-6.4-2.8-9-0.4l0,0    c-2.6,2.4-2.8,6.4-0.4,9l40.1,43.9C1043,301.9,1047,302,1049.6,299.6z"
   id="path1296" />
		<path
   class="st4"
   d="M1055.2,286.7L1055.2,286.7c2.6-2.4,2.8-6.4,0.4-9l-19.9-21.7c-2.4-2.6-6.4-2.8-9-0.4v0    c-2.6,2.4-2.8,6.4-0.4,9l19.9,21.7C1048.5,288.9,1052.6,289.1,1055.2,286.7z"
   id="path1298" />
		<path
   class="st4"
   d="M1066.8,280.5L1066.8,280.5c2.6-2.4,2.8-6.4,0.4-9l-19.9-21.7c-2.4-2.6-6.4-2.8-9-0.4l0,0    c-2.6,2.4-2.8,6.4-0.4,9l19.9,21.7C1060.1,282.7,1064.2,282.8,1066.8,280.5z"
   id="path1300" />
		<path
   class="st4"
   d="M1079.4,275.3L1079.4,275.3c2.6-2.4,2.8-6.4,0.4-9l-19.9-21.7c-2.4-2.6-6.4-2.8-9-0.4v0    c-2.6,2.4-2.8,6.4-0.4,9l19.9,21.7C1072.7,277.5,1076.8,277.7,1079.4,275.3z"
   id="path1302" />
		<path
   class="st4"
   d="M1054.1,305.4l-6.9,2.4c-2.3,0.8-4.9,0.2-6.7-1.5l-10.7-10.9c-2.1-2.1-2.4-5.3-0.9-7.8l4.5-7.4L1054.1,305.4z    "
   id="path1304" />
	</g>
	<circle
   class="st17"
   cx="1114.8"
   cy="167.5"
   r="42.5"
   id="circle1308" />
	
		<ellipse
   transform="matrix(0.9968 -8.001714e-02 8.001714e-02 0.9968 -12.9618 85.5989)"
   class="st17"
   cx="1061.6"
   cy="204.5"
   rx="9.3"
   ry="9.3"
   id="ellipse1310" />
	<circle
   class="st17"
   cx="1037.4"
   cy="212.8"
   r="7.2"
   id="circle1312" />
	<text
   transform="matrix(1 0 0 1 1099.1255 193.8639)"
   class="st18 st19 st20"
   id="text1314">?</text>

	<path
   class="st4"
   d="M807.8,656.2c-2.9-6.9-6-16.2-7.2-20.2c-0.4-1.1-1.4-1.9-2.6-1.9l-23.7,0.9c-1.2,0-2.3,0.9-2.5,2.1   c-2.2,11.2-4.4,20.5,0,37.4c6.3,24.3,14.1,26.5,18.2,24.5c2.5-1.2,1.7-5,0.7-7.8c3.5,5.4,9.5,1.7,7.9-4.7c1.1-0.2,7.2-1.6,3.9-10.1   c-1.5-3.9-3.5-12.5-3.5-17c0.4,0.9,0.8,1.9,1.2,2.9C803.3,669.3,811.6,665.2,807.8,656.2z"
   id="path1316" />
</g>
</svg>