<?xml version="1.0" encoding="UTF-8" standalone="no"?>
<!-- Generator: Adobe Illustrator 19.2.0, SVG Export Plug-In . SVG Version: 6.00 Build 0)  -->

<svg
   xmlns:dc="http://purl.org/dc/elements/1.1/"
   xmlns:cc="http://creativecommons.org/ns#"
   xmlns:rdf="http://www.w3.org/1999/02/22-rdf-syntax-ns#"
   xmlns:svg="http://www.w3.org/2000/svg"
   xmlns="http://www.w3.org/2000/svg"
   xmlns:sodipodi="http://sodipodi.sourceforge.net/DTD/sodipodi-0.dtd"
   xmlns:inkscape="http://www.inkscape.org/namespaces/inkscape"
   version="1.1"
   id="Layer_1"
   x="0px"
   y="0px"
   viewBox="0 0 1920 1080"
   style="enable-background:new 0 0 1920 1080;"
   xml:space="preserve"
   sodipodi:docname="Professor_Carrying_a_Folder_and_Suitcase_Cartoon.svg"
   inkscape:export-filename="/home/gpetit/Nextcloud/Plateformes/Noise_Planet/Noise_Planet/Kit_pedagogique/Presentation_generale/Images/Professor_Carrying_a_Folder_and_Suitcase_Cartoon.png"
   inkscape:export-xdpi="96"
   inkscape:export-ydpi="96"
   inkscape:version="0.92.4 (f8dce91, 2019-08-02)"><metadata
   id="metadata153"><rdf:RDF><cc:Work
       rdf:about=""><dc:format>image/svg+xml</dc:format><dc:type
         rdf:resource="http://purl.org/dc/dcmitype/StillImage" /></cc:Work></rdf:RDF></metadata><defs
   id="defs151" /><sodipodi:namedview
   pagecolor="#ffffff"
   bordercolor="#666666"
   borderopacity="1"
   objecttolerance="10"
   gridtolerance="10"
   guidetolerance="10"
   inkscape:pageopacity="0"
   inkscape:pageshadow="2"
   inkscape:window-width="1878"
   inkscape:window-height="1136"
   id="namedview149"
   showgrid="false"
   inkscape:zoom="0.21851852"
   inkscape:cx="960"
   inkscape:cy="540"
   inkscape:window-x="42"
   inkscape:window-y="27"
   inkscape:window-maximized="1"
   inkscape:current-layer="Layer_1" />
<style
   type="text/css"
   id="style2">
	.st0{fill:#F8C09D;}
	.st1{fill:#AA6F3D;}
	.st2{fill:#774829;}
	.st3{fill:#A8C4CC;}
	.st4{fill:#FFFFFF;}
	.st5{fill:#E6E6E6;}
	.st6{fill:#F6AE8D;}
	.st7{fill:#EF937E;}
	.st8{fill:#333333;}
	.st9{opacity:0.81;fill:#DAEEF2;}
	.st10{opacity:0.81;fill:#FFFFFF;}
	.st11{fill:none;stroke:#333333;stroke-width:3;stroke-miterlimit:10;}
	.st12{fill:none;stroke:#DAEEF2;stroke-width:10;stroke-miterlimit:10;}
	.st13{fill:#D13924;}
	.st14{fill:#E8533A;}
	.st15{fill:#CC7C40;}
	.st16{fill:#4C2A0F;}
	.st17{fill:none;stroke:#9E6D4C;stroke-width:10;stroke-linejoin:round;stroke-miterlimit:10;}
	.st18{fill:#916243;}
	.st19{fill:#9E6D4C;}
	.st20{fill:#BA8458;}
	.st21{fill:#FBB03B;}
	.st22{fill:#F29A25;}
	.st23{fill:#D3882D;}
	.st24{fill:#F7931E;}
</style>
<g
   id="g146">
	<path
   class="st0"
   d="M1041.4,608.1l-8.5-7l-17.2,20c-2,2.3-1.7,5.9,0.7,7.8l0,0c2.3,1.9,5.7,1.6,7.7-0.7L1041.4,608.1z"
   id="path4" />
	<path
   class="st1"
   d="M1056.2,462L1056.2,462c-10.2-0.3-18.7,7.6-19.1,17.8l-4.6,137.3c-0.3,10.2,7.6,18.7,17.8,19.1h0   c10.2,0.3,18.7-7.6,19.1-17.8l4.6-137.3C1074.4,470.8,1066.4,462.3,1056.2,462z"
   id="path6" />
	<path
   class="st2"
   d="M937.3,624H936c-41.6,0-75.4-34.2-75.4-75.8V548h152v0.2C1012.6,589.8,978.9,624,937.3,624z"
   id="path8" />
	<path
   class="st1"
   d="M972.5,344.9L972.5,344.9c-8.6,5.4-11.3,16.8-5.9,25.4l72.6,116.6c5.4,8.6,16.8,11.3,25.4,5.9v0   c8.6-5.4,11.3-16.8,5.9-25.4L998,350.8C992.6,342.2,981.2,339.6,972.5,344.9z"
   id="path10" />
	<polygon
   class="st2"
   points="918,890 881.6,890 860.6,548 922.6,548  "
   id="polygon12" />
	<polygon
   class="st2"
   points="955.4,890 990.6,890 1012.6,548 949.6,548  "
   id="polygon14" />
	<path
   class="st1"
   d="M907.8,340.4h57.7c26,0,47.2,21.1,47.2,47.2V548h-152V387.6C860.6,361.5,881.7,340.4,907.8,340.4z"
   id="path16" />
	<rect
   x="916.8"
   y="340.4"
   class="st3"
   width="58"
   height="207.6"
   id="rect18" />
	<path
   class="st4"
   d="M971.4,352.8c0,13.4-10.9,24.5-24.3,24.5h0h-0.2c-13.4,0-24.5-11.1-24.5-24.5v-21.5h49V352.8z"
   id="path20" />
	<rect
   x="922.4"
   y="311.3"
   class="st0"
   width="49"
   height="46"
   id="rect22" />
	<path
   class="st5"
   d="M916.5,181.7c0-5.6-2.6-10.7-6.6-14c0.4-1.3,0.6-2.7,0.6-4.2c0-8.4-6.8-15.2-15.2-15.2c-5.5,0-10.4,3-13,7.4   c-2.8-1.8-6.1-2.8-9.6-2.8c-10.1,0-18.2,8.2-18.2,18.2c0,1.9,0.3,3.7,0.8,5.3c-7,2.6-12,9.3-12,17.2c0,7.4,4.3,13.7,10.5,16.6   c-1.6,2.4-2.5,5.3-2.5,8.4c0,8.4,6.8,15.2,15.2,15.2c7.7,0,14-5.7,15-13.1c1.5,0.3,3,0.5,4.5,0.5c11.8,0,21.4-9.6,21.4-21.4   c0-0.8-0.1-1.6-0.1-2.4C912.7,194.4,916.5,188.5,916.5,181.7z"
   id="path24" />
	<path
   class="st5"
   d="M1047.5,200.4c0,5.6-2.6,10.7-6.6,14c0.4,1.3,0.6,2.7,0.6,4.2c0,8.4-6.8,15.2-15.2,15.2c-5.5,0-10.4-3-13-7.4   c-2.8,1.8-6.1,2.8-9.6,2.8c-10.1,0-18.2-8.2-18.2-18.2c0-1.9,0.3-3.7,0.8-5.3c-7-2.6-12-9.3-12-17.2c0-7.4,4.3-13.7,10.5-16.6   c-1.6-2.4-2.5-5.3-2.5-8.4c0-8.4,6.8-15.2,15.2-15.2c7.7,0,14,5.7,15,13.1c1.5-0.3,3-0.5,4.5-0.5c11.8,0,21.4,9.6,21.4,21.4   c0,0.8-0.1,1.6-0.1,2.4C1043.7,187.7,1047.5,193.7,1047.5,200.4z"
   id="path26" />
	<path
   class="st6"
   d="M922.4,327.2c9.5,4.1,19.4,6.3,28.9,6.3c6.6,0,13.4-1.1,20.1-3.1v-15.5h-49V327.2z"
   id="path28" />
	<path
   class="st0"
   d="M951.3,322.4c-31.9,0-70.3-27.9-70.3-66.9v-42.8c0-32.9,26.7-59.6,59.6-59.6h21.6c32.9,0,59.6,26.7,59.6,59.6   v42.8C1022,294.5,983.2,322.4,951.3,322.4z"
   id="path30" />
	<circle
   class="st0"
   cx="880.7"
   cy="223.7"
   r="20"
   id="circle32" />
	<path
   class="st7"
   d="M876.7,226.5c0-3.9,3.2-7.1,7.1-7.1c1.1,0,2.1,0.2,3,0.7c-1.2-2.1-3.5-3.5-6.1-3.5c-3.9,0-7.1,3.2-7.1,7.1   c0,2.8,1.7,5.3,4.1,6.4C877,229.1,876.7,227.8,876.7,226.5z"
   id="path34" />
	<ellipse
   class="st8"
   cx="935.5"
   cy="226.1"
   rx="4.6"
   ry="8.1"
   id="ellipse36" />
	<ellipse
   class="st8"
   cx="993.6"
   cy="226.1"
   rx="4.6"
   ry="8.1"
   id="ellipse38" />
	<path
   class="st7"
   d="M941.4,262.6c0,12.5,10.1,22.6,22.6,22.6h0c12.5,0,22.6-10.1,22.6-22.6"
   id="path40" />
	<path
   class="st5"
   d="M990.5,273.9h-54c-2.3,0-3.5-2.8-1.9-4.4l13.2-14.1c1.7-1.8,4-2.8,6.4-2.8h18.6c2.4,0,4.7,1,6.4,2.8l13.2,14.1   C994,271.1,992.8,273.9,990.5,273.9z"
   id="path42" />
	<path
   class="st7"
   d="M957.5,233.5V254c0,0.9,1.1,1.6,2.1,1.6h12.1c3.3,0,5.1-3.8,3-6.4l-14-16.9   C959.7,231.2,957.5,231.9,957.5,233.5z"
   id="path44" />
	<circle
   class="st9"
   cx="947.8"
   cy="243.7"
   r="10.7"
   id="circle46" />
	<g
   id="g52">
		<path
   class="st10"
   d="M952.2,234c-1.3-0.6-2.8-0.9-4.4-0.9c-5.9,0-10.7,4.8-10.7,10.7c0,2.7,1,5.2,2.7,7.1    C943.8,245.3,949.1,238,952.2,234z"
   id="path48" />
		<path
   class="st10"
   d="M947.5,254.4c0.1,0,0.2,0,0.3,0c5.9,0,10.7-4.8,10.7-10.7c0-1.2-0.2-2.3-0.5-3.3L947.5,254.4z"
   id="path50" />
	</g>
	<circle
   class="st9"
   cx="983.8"
   cy="243.7"
   r="10.7"
   id="circle54" />
	<g
   id="g60">
		<path
   class="st10"
   d="M988.2,234c-1.3-0.6-2.8-0.9-4.4-0.9c-5.9,0-10.7,4.8-10.7,10.7c0,2.7,1,5.2,2.7,7.1    C979.8,245.3,985.1,238,988.2,234z"
   id="path56" />
		<path
   class="st10"
   d="M983.5,254.4c0.1,0,0.2,0,0.3,0c5.9,0,10.7-4.8,10.7-10.7c0-1.2-0.2-2.3-0.5-3.3L983.5,254.4z"
   id="path58" />
	</g>
	<circle
   class="st11"
   cx="947.8"
   cy="243.7"
   r="10.7"
   id="circle62" />
	<circle
   class="st11"
   cx="983.8"
   cy="243.7"
   r="10.7"
   id="circle64" />
	<path
   class="st11"
   d="M956.6,237.7c0,0,3.3-6.7,9.2-6.7s9.2,6.7,9.2,6.7"
   id="path66" />
	<path
   class="st1"
   d="M895.4,344.2L895.4,344.2c9,4.9,12.3,16.1,7.4,25l-65.6,120.7c-4.9,9-16.1,12.3-25,7.4v0   c-9-4.9-12.3-16.1-7.4-25l65.6-120.7C875.2,342.7,886.4,339.3,895.4,344.2z"
   id="path68" />
	<path
   class="st12"
   d="M921.6,213.6c0,0,6.9-4.2,13.9-4.2c7,0,12,2.7,12,2.7"
   id="path70" />
	<path
   class="st12"
   d="M1006.5,213.6c0,0-6.9-4.2-13.9-4.2c-7,0-12,2.7-12,2.7"
   id="path72" />
	<g
   id="g80">
		<path
   class="st13"
   d="M944.2,357.4l-17.6,5.7c-2.5,0.8-5.1-1-5.1-3.7v-12c0-2.6,2.6-4.5,5.1-3.7l17.6,5.7V357.4z"
   id="path74" />
		<path
   class="st13"
   d="M950.2,357.4l17.6,5.7c2.5,0.8,5.1-1,5.1-3.7v-12c0-2.6-2.6-4.5-5.1-3.7l-17.6,5.7V357.4z"
   id="path76" />
		<path
   class="st14"
   d="M949.9,359.3h-6c-1.7,0-3.1-1.4-3.1-3.1v-5.6c0-1.7,1.4-3.1,3.1-3.1h6c1.7,0,3.1,1.4,3.1,3.1v5.6    C953,357.9,951.6,359.3,949.9,359.3z"
   id="path78" />
	</g>
	<path
   class="st15"
   d="M917,340.4l-14.4,1.8l-23.3,48.1l18.5-3l-19.2,16.6c0,0,4.5,5.5,19.2,31.5c14.7,26,19.2,40.9,19.2,40.9V340.4   z"
   id="path82" />
	<rect
   x="860.6"
   y="532.1"
   class="st1"
   width="45.2"
   height="59.5"
   id="rect84" />
	<path
   class="st15"
   d="M975,340.4l14.2,1.8l23.2,48.1l-18.6-3l19.2,16.6c0,0-4.3,5.5-19,31.5c-14.7,26-19,40.9-19,40.9V340.4z"
   id="path86" />
	<path
   class="st16"
   d="M955.4,889.7l-4.6,37.9c-0.3,2.2,1.4,4.1,3.6,4.1h15.9c2,0,3.7-1.6,3.7-3.7v-3.6c0,0,15.1,7.3,22.3,7.3   s22.2-0.3,31.9-0.3c6.4,0,14.4-2.2,19-3.7c2.2-0.7,3.5-3,3-5.3l-1.7-7.1c-1.4-5.9-7.3-9.6-13.2-8.3l0,0c-3.9,0.9-8,0.4-11.6-1.4   l-33.1-16.1H955.4z"
   id="path88" />
	<path
   class="st16"
   d="M881.9,889.7l-4.6,37.9c-0.3,2.2,1.4,4.1,3.6,4.1h15.9c2,0,3.7-1.6,3.7-3.7v-3.6c0,0,15.1,7.3,22.3,7.3   c7.2,0,22.2-0.3,31.9-0.3c6.4,0,14.4-2.2,19-3.7c2.2-0.7,3.5-3,3-5.3l-1.7-7.1c-1.4-5.9-7.3-9.6-13.2-8.3l0,0   c-3.9,0.9-8,0.4-11.6-1.4l-33.1-16.1L881.9,889.7z"
   id="path90" />
	<rect
   x="975"
   y="532.8"
   class="st1"
   width="37.6"
   height="59.5"
   id="rect92" />
	<g
   id="g108">
		<rect
   x="1016.1"
   y="627.5"
   class="st17"
   width="64.4"
   height="49.3"
   id="rect94" />
		<path
   class="st18"
   d="M1142.1,783.3H954.5c-4.7,0-8.5-3.8-8.5-8.5V651.7c0-4.7,3.8-8.5,8.5-8.5h187.6c4.7,0,8.5,3.8,8.5,8.5v123.1    C1150.5,779.5,1146.7,783.3,1142.1,783.3z"
   id="path96" />
		<path
   class="st19"
   d="M1142.1,769.2H954.5c-4.7,0-8.5-3.8-8.5-8.5v-109c0-4.7,3.8-8.5,8.5-8.5h187.6c4.7,0,8.5,3.8,8.5,8.5v109    C1150.5,765.4,1146.7,769.2,1142.1,769.2z"
   id="path98" />
		<path
   class="st20"
   d="M1150.5,706.2H946V651c0-4.3,3.5-7.7,7.7-7.7h189c4.3,0,7.7,3.5,7.7,7.7V706.2z"
   id="path100" />
		<path
   class="st21"
   d="M1070.1,706.2h-43.6V696c0-2.9,2.3-5.2,5.2-5.2h33.2c2.9,0,5.2,2.3,5.2,5.2V706.2z"
   id="path102" />
		<path
   class="st22"
   d="M1055,715.8h-13.4c-2,0-3.6-1.6-3.6-3.6v-6h20.6v6C1058.6,714.2,1057,715.8,1055,715.8z"
   id="path104" />
		<path
   class="st23"
   d="M1052,712.4h-7.5c-1.2,0-2.2-1-2.2-2.2v-4h11.9v4C1054.2,711.4,1053.3,712.4,1052,712.4z"
   id="path106" />
	</g>
	<g
   id="g116">
		<path
   class="st24"
   d="M850.2,545.5h60.9c2.2,0,4-1.8,4-4v-23.1c0-2.2-1.8-4-4-4h-53.7c-1.8,0-3.3,1.1-3.8,2.8l-7.2,23.1    C845.6,542.9,847.5,545.5,850.2,545.5z"
   id="path110" />
		
			<rect
   x="875.3"
   y="498.6"
   transform="matrix(6.123234e-17 -1 1 6.123234e-17 351.9024 1407.2968)"
   class="st4"
   width="8.6"
   height="58.3"
   id="rect112" />
		<path
   class="st21"
   d="M858.6,532h52.9c2.3,0,4.1,1.8,4.1,4.1v87.3c0,2.3-1.8,4.1-4.1,4.1H773.5c-2.3,0-4.1-1.8-4.1-4.1V522.6    c0-2.3,1.8-4.1,4.1-4.1h76.9c2.3,0,4.1,1.8,4.1,4.1v5.3C854.5,530.2,856.3,532,858.6,532z"
   id="path114" />
	</g>
	<g
   id="g128">
		<path
   class="st0"
   d="M1026.8,616.7l0.1,12c0,2.5,1.8,4.5,4,4.5l34.4,0c4.1,0,7.4-4.6,7.4-10.3l0-14c0-6.1-3.5-11-7.9-11l-24.5,0    C1032.8,598.1,1026.8,606.4,1026.8,616.7z"
   id="path118" />
		<path
   class="st0"
   d="M1054.5,615.2L1054.5,615.2c-3.3,0.1-5.9,2.8-5.9,6.1l0.2,13.9c0.1,3.3,2.8,5.9,6.1,5.9l0,0    c3.3-0.1,5.9-2.8,5.9-6.1l-0.2-13.9C1060.5,617.7,1057.8,615.1,1054.5,615.2z"
   id="path120" />
		<path
   class="st0"
   d="M1066.6,614.1L1066.6,614.1c-3.3,0.1-5.9,2.8-5.9,6.1l0.2,13.9c0.1,3.3,2.8,5.9,6.1,5.9h0    c3.3-0.1,5.9-2.8,5.9-6.1l-0.2-13.9C1072.6,616.7,1069.9,614.1,1066.6,614.1z"
   id="path122" />
		<path
   class="st0"
   d="M1032.3,615.7L1032.3,615.7c-3,0.1-5.5,2.6-5.4,5.6l0.2,12.4c0.1,3,2.6,5.5,5.6,5.4l0,0    c3-0.1,5.5-2.6,5.4-5.6l-0.2-12.4C1037.8,618.1,1035.3,615.6,1032.3,615.7z"
   id="path124" />
		<path
   class="st0"
   d="M1043.1,614.1L1043.1,614.1c-3,0.1-5.5,2.6-5.4,5.6l0.3,14.9c0.1,3,2.6,5.5,5.6,5.4l0,0    c3-0.1,5.5-2.6,5.4-5.6l-0.3-14.9C1048.6,616.5,1046.1,614.1,1043.1,614.1z"
   id="path126" />
	</g>
	<path
   class="st1"
   d="M820.7,462L820.7,462c10.2-0.3,18.7,7.6,19.1,17.8l4.6,137.3c0.3,10.2-7.6,18.7-17.8,19.1h0   c-10.2,0.3-18.7-7.6-19.1-17.8L802.9,481C802.5,470.8,810.5,462.3,820.7,462z"
   id="path130" />
	<g
   id="g144">
		<path
   class="st0"
   d="M850.1,616.7l-0.1,12c0,2.5-1.8,4.5-4,4.5l-34.4,0c-4.1,0-7.4-4.6-7.4-10.3l0-14c0-6.1,3.5-11,7.9-11l24.5,0    C844.1,598.1,850.1,606.4,850.1,616.7z"
   id="path132" />
		<path
   class="st0"
   d="M822.3,615.2L822.3,615.2c3.3,0.1,5.9,2.8,5.9,6.1l-0.2,13.9c-0.1,3.3-2.8,5.9-6.1,5.9l0,0    c-3.3-0.1-5.9-2.8-5.9-6.1l0.2-13.9C816.3,617.7,819,615.1,822.3,615.2z"
   id="path134" />
		<path
   class="st0"
   d="M810.3,614.1L810.3,614.1c3.3,0.1,5.9,2.8,5.9,6.1l-0.2,13.9c-0.1,3.3-2.8,5.9-6.1,5.9l0,0    c-3.3-0.1-5.9-2.8-5.9-6.1l0.2-13.9C804.3,616.7,807,614.1,810.3,614.1z"
   id="path136" />
		<path
   class="st0"
   d="M844.6,615.7L844.6,615.7c3,0.1,5.5,2.6,5.4,5.6l-0.2,12.4c-0.1,3-2.6,5.5-5.6,5.4l0,0    c-3-0.1-5.5-2.6-5.4-5.6l0.2-12.4C839.1,618.1,841.6,615.6,844.6,615.7z"
   id="path138" />
		<path
   class="st0"
   d="M833.8,614.1L833.8,614.1c3,0.1,5.5,2.6,5.4,5.6l-0.3,14.9c-0.1,3-2.6,5.5-5.6,5.4l0,0    c-3-0.1-5.5-2.6-5.4-5.6l0.3-14.9C828.3,616.5,830.8,614.1,833.8,614.1z"
   id="path140" />
		<path
   class="st0"
   d="M834.5,608.3l5.7-9.4l22.7,13.4c2.6,1.6,3.5,5,1.9,7.6l0,0c-1.6,2.6-4.9,3.4-7.5,1.9L834.5,608.3z"
   id="path142" />
	</g>
</g>
</svg>