<?xml version="1.0" encoding="UTF-8" standalone="no"?>
<!-- Generator: Adobe Illustrator 19.2.0, SVG Export Plug-In . SVG Version: 6.00 Build 0)  -->

<svg
   xmlns:dc="http://purl.org/dc/elements/1.1/"
   xmlns:cc="http://creativecommons.org/ns#"
   xmlns:rdf="http://www.w3.org/1999/02/22-rdf-syntax-ns#"
   xmlns:svg="http://www.w3.org/2000/svg"
   xmlns="http://www.w3.org/2000/svg"
   xmlns:sodipodi="http://sodipodi.sourceforge.net/DTD/sodipodi-0.dtd"
   xmlns:inkscape="http://www.inkscape.org/namespaces/inkscape"
   version="1.1"
   id="Layer_1"
   x="0px"
   y="0px"
   viewBox="0 0 1920 1080"
   style="enable-background:new 0 0 1920 1080;"
   xml:space="preserve"
   sodipodi:docname="Professor_Pointing_on_the_Blackboard_Cartoon.svg"
   inkscape:export-filename="/home/gpetit/Nextcloud/Plateformes/Noise_Planet/Noise_Planet/Kit_pedagogique/Presentation_generale/Images/Professor_Pointing_on_the_Blackboard_Cartoon.png"
   inkscape:export-xdpi="96"
   inkscape:export-ydpi="96"
   inkscape:version="0.92.4 (f8dce91, 2019-08-02)"><metadata
   id="metadata149"><rdf:RDF><cc:Work
       rdf:about=""><dc:format>image/svg+xml</dc:format><dc:type
         rdf:resource="http://purl.org/dc/dcmitype/StillImage" /></cc:Work></rdf:RDF></metadata><defs
   id="defs147" /><sodipodi:namedview
   pagecolor="#ffffff"
   bordercolor="#666666"
   borderopacity="1"
   objecttolerance="10"
   gridtolerance="10"
   guidetolerance="10"
   inkscape:pageopacity="0"
   inkscape:pageshadow="2"
   inkscape:window-width="1878"
   inkscape:window-height="1136"
   id="namedview145"
   showgrid="false"
   inkscape:zoom="0.21851852"
   inkscape:cx="960"
   inkscape:cy="540"
   inkscape:window-x="42"
   inkscape:window-y="27"
   inkscape:window-maximized="1"
   inkscape:current-layer="Layer_1" />
<style
   type="text/css"
   id="style2">
	.st0{fill:#DD9D57;}
	.st1{fill:#006837;}
	.st2{fill:#004924;}
	.st3{fill:#C48341;}
	.st4{fill:#FFFFFF;}
	.st5{fill:#AA6F3D;}
	.st6{fill:#F8C09D;}
	.st7{fill:#774829;}
	.st8{fill:#A8C4CC;}
	.st9{fill:#E6E6E6;}
	.st10{fill:#F6AE8D;}
	.st11{fill:#EF937E;}
	.st12{fill:#333333;}
	.st13{opacity:0.81;fill:#DAEEF2;}
	.st14{opacity:0.81;fill:#FFFFFF;}
	.st15{fill:none;stroke:#333333;stroke-width:3;stroke-miterlimit:10;}
	.st16{fill:none;stroke:#DAEEF2;stroke-width:10;stroke-miterlimit:10;}
	.st17{fill:#D13924;}
	.st18{fill:#E8533A;}
	.st19{fill:#CC7C40;}
	.st20{fill:#4C2A0F;}
</style>
<g
   id="g142">
	<g
   id="g20">
		<rect
   x="804.5"
   y="160.5"
   class="st0"
   width="617.9"
   height="411.7"
   id="rect4" />
		<rect
   x="831.4"
   y="187.3"
   class="st1"
   width="564.1"
   height="358.3"
   id="rect6" />
		<polygon
   class="st2"
   points="847.9,201.1 1395.5,201.1 1395.5,187.3 831.4,187.3 831.4,545.5 847.9,545.5   "
   id="polygon8" />
		<rect
   x="781.7"
   y="571.2"
   class="st0"
   width="663.5"
   height="32.2"
   id="rect10" />
		<rect
   x="781.7"
   y="569.9"
   class="st3"
   width="663.5"
   height="11.8"
   id="rect12" />
		<rect
   x="1062.5"
   y="132.8"
   class="st0"
   width="101.9"
   height="29.3"
   id="rect14" />
		<rect
   x="1062.5"
   y="151.6"
   class="st3"
   width="101.9"
   height="10.5"
   id="rect16" />
		<path
   class="st4"
   d="M1333.9,570.1h-39.7c-2.5,0-4.5-2-4.5-4.5v-3c0-2.5,2-4.5,4.5-4.5h39.7c2.5,0,4.5,2,4.5,4.5v3    C1338.4,568.2,1336.4,570.1,1333.9,570.1z"
   id="path18" />
	</g>
	<path
   class="st5"
   d="M496.6,614.5l1.9,0.5c9.3,2.6,19.5-4.9,22.7-16.8l73.5-212.6c3.3-11.8,1.9-24.2-7.4-26.8l-1.9-0.5   c-13.5-3.6-36.4,8.9-60.2,84.7l-40.6,145.4C481.4,600.3,487.3,611.9,496.6,614.5z"
   id="path22" />
	<path
   class="st6"
   d="M521.6,623.7c-1.5-8.8-2.4-20.4-2.7-25.3c-0.1-1.4-1.1-2.6-2.5-2.9l-27.6-5.6c-1.4-0.3-2.9,0.4-3.5,1.8   c-5.7,12.4-10.8,22.4-10.5,43.2c0.5,29.8,8.8,34.5,14.2,33.3c3.3-0.7,3.4-5.3,3-8.8c2.5,7.2,10.5,4.6,10.5-3.2   c1.4,0.1,8.7,0.2,7.3-10.5c-0.6-4.9-0.5-15.4,0.7-20.6c0.2,1.2,0.4,2.4,0.6,3.7C512.7,637.6,523.5,635.2,521.6,623.7z"
   id="path24" />
	<path
   class="st5"
   d="M748,473.5L748,473.5c8.9,5,20.1,1.9,25.2-6.9l71.3-125.3L812.4,323l-71.3,125.3   C736,457.2,739.1,468.4,748,473.5z"
   id="path26" />
	<path
   class="st7"
   d="M623.1,639.5h-1.3c-41.6,0-75.4-34.2-75.4-75.8v-0.2h152v0.2C698.4,605.3,664.7,639.5,623.1,639.5z"
   id="path28" />
	<path
   class="st5"
   d="M653.4,364.9l-1.2,1.3c-6.4,7.3-5.7,18.4,1.5,24.8l91.3,80.7c7.3,6.4,18.4,5.7,24.8-1.5l1.2-1.3   c6.4-7.3,5.7-18.4-1.5-24.8l-91.3-80.7C671,357,659.9,357.7,653.4,364.9z"
   id="path30" />
	<polygon
   class="st7"
   points="603.8,905.5 567.4,905.5 546.4,563.5 608.4,563.5  "
   id="polygon32" />
	<polygon
   class="st7"
   points="641.2,905.5 676.4,905.5 698.4,563.5 635.4,563.5  "
   id="polygon34" />
	<path
   class="st5"
   d="M593.6,355.9h57.7c26,0,47.2,21.1,47.2,47.2v160.4h-152V403C546.4,377,567.5,355.9,593.6,355.9z"
   id="path36" />
	<rect
   x="591.6"
   y="355.9"
   class="st8"
   width="58"
   height="207.6"
   id="rect38" />
	<path
   class="st4"
   d="M646.2,368.3c0,13.4-10.9,24.5-24.3,24.5h0h-0.2c-13.4,0-24.5-11.1-24.5-24.5v-21.5h49V368.3z"
   id="path40" />
	<rect
   x="597.2"
   y="326.7"
   class="st6"
   width="49"
   height="46"
   id="rect42" />
	<path
   class="st9"
   d="M598.5,197.2c0-5.6-2.6-10.7-6.6-14c0.4-1.3,0.6-2.7,0.6-4.2c0-8.4-6.8-15.2-15.2-15.2c-5.5,0-10.4,3-13,7.4   c-2.8-1.8-6.1-2.8-9.6-2.8c-10.1,0-18.2,8.2-18.2,18.2c0,1.9,0.3,3.7,0.8,5.3c-7,2.6-12,9.3-12,17.2c0,7.4,4.3,13.7,10.5,16.6   c-1.6,2.4-2.5,5.3-2.5,8.4c0,8.4,6.8,15.2,15.2,15.2c7.7,0,14-5.7,15-13.1c1.5,0.3,3,0.5,4.5,0.5c11.8,0,21.4-9.6,21.4-21.4   c0-0.8-0.1-1.6-0.1-2.4C594.7,209.9,598.5,203.9,598.5,197.2z"
   id="path44" />
	<path
   class="st9"
   d="M729.5,215.9c0,5.6-2.6,10.7-6.6,14c0.4,1.3,0.6,2.7,0.6,4.2c0,8.4-6.8,15.2-15.2,15.2c-5.5,0-10.4-3-13-7.4   c-2.8,1.8-6.1,2.8-9.6,2.8c-10.1,0-18.2-8.2-18.2-18.2c0-1.9,0.3-3.7,0.8-5.3c-7-2.6-12-9.3-12-17.2c0-7.4,4.3-13.7,10.5-16.6   c-1.6-2.4-2.5-5.3-2.5-8.4c0-8.4,6.8-15.2,15.2-15.2c7.7,0,14,5.7,15,13.1c1.5-0.3,3-0.5,4.5-0.5c11.8,0,21.4,9.6,21.4,21.4   c0,0.8-0.1,1.6-0.1,2.4C725.7,203.2,729.5,209.1,729.5,215.9z"
   id="path46" />
	<path
   class="st10"
   d="M597.2,342.7c9.5,4.1,19.4,6.3,28.9,6.3c6.6,0,13.4-1.1,20.1-3.1v-15.5h-49V342.7z"
   id="path48" />
	<path
   class="st6"
   d="M626.1,337.8c-31.9,0-70.3-27.9-70.3-66.9v-42.8c0-32.9,26.7-59.6,59.6-59.6h21.6c32.9,0,59.6,26.7,59.6,59.6   v42.8C696.8,309.9,658,337.8,626.1,337.8z"
   id="path50" />
	<circle
   class="st6"
   cx="555.5"
   cy="239.2"
   r="20"
   id="circle52" />
	<path
   class="st11"
   d="M551.5,242c0-3.9,3.2-7.1,7.1-7.1c1.1,0,2.1,0.2,3,0.7c-1.2-2.1-3.5-3.5-6.1-3.5c-3.9,0-7.1,3.2-7.1,7.1   c0,2.8,1.7,5.3,4.1,6.4C551.9,244.5,551.5,243.3,551.5,242z"
   id="path54" />
	<ellipse
   class="st12"
   cx="603.4"
   cy="241.6"
   rx="4.6"
   ry="8.1"
   id="ellipse56" />
	<ellipse
   class="st12"
   cx="661.4"
   cy="241.6"
   rx="4.6"
   ry="8.1"
   id="ellipse58" />
	<circle
   class="st6"
   cx="698.3"
   cy="239.2"
   r="20"
   id="circle60" />
	<path
   class="st11"
   d="M704.9,242c0-3.9-3.2-7.1-7.1-7.1c-1.1,0-2.1,0.2-3,0.7c1.2-2.1,3.5-3.5,6.1-3.5c3.9,0,7.1,3.2,7.1,7.1   c0,2.8-1.7,5.3-4.1,6.4C704.6,244.5,704.9,243.3,704.9,242z"
   id="path62" />
	<path
   class="st11"
   d="M609.2,278.1c0,12.5,10.1,22.6,22.6,22.6h0c12.5,0,22.6-10.1,22.6-22.6"
   id="path64" />
	<path
   class="st9"
   d="M658.3,289.4h-54c-2.3,0-3.5-2.8-1.9-4.4l13.2-14.1c1.7-1.8,4-2.8,6.4-2.8h18.6c2.4,0,4.7,1,6.4,2.8l13.2,14.1   C661.8,286.6,660.6,289.4,658.3,289.4z"
   id="path66" />
	<path
   class="st11"
   d="M625.3,249v20.5c0,0.9,1.1,1.6,2.1,1.6h12.1c3.3,0,5.1-3.8,3-6.4l-14-16.9C627.5,246.7,625.3,247.4,625.3,249   z"
   id="path68" />
	<circle
   class="st13"
   cx="615.7"
   cy="259.2"
   r="10.7"
   id="circle70" />
	<g
   id="g76">
		<path
   class="st14"
   d="M620.2,249.5c-1.3-0.6-2.8-0.9-4.4-0.9c-5.9,0-10.7,4.8-10.7,10.7c0,2.7,1,5.2,2.7,7.1    C611.8,260.8,617.1,253.5,620.2,249.5z"
   id="path72" />
		<path
   class="st14"
   d="M615.5,269.9c0.1,0,0.2,0,0.3,0c5.9,0,10.7-4.8,10.7-10.7c0-1.2-0.2-2.3-0.5-3.3L615.5,269.9z"
   id="path74" />
	</g>
	<circle
   class="st13"
   cx="651.6"
   cy="259.2"
   r="10.7"
   id="circle78" />
	<g
   id="g84">
		<path
   class="st14"
   d="M656.2,249.5c-1.3-0.6-2.8-0.9-4.4-0.9c-5.9,0-10.7,4.8-10.7,10.7c0,2.7,1,5.2,2.7,7.1    C647.8,260.8,653.1,253.5,656.2,249.5z"
   id="path80" />
		<path
   class="st14"
   d="M651.5,269.9c0.1,0,0.2,0,0.3,0c5.9,0,10.7-4.8,10.7-10.7c0-1.2-0.2-2.3-0.5-3.3L651.5,269.9z"
   id="path82" />
	</g>
	<circle
   class="st15"
   cx="615.7"
   cy="259.2"
   r="10.7"
   id="circle86" />
	<circle
   class="st15"
   cx="651.6"
   cy="259.2"
   r="10.7"
   id="circle88" />
	<path
   class="st15"
   d="M624.6,253.1c0,0,3.3-6.7,9.2-6.7s9.2,6.7,9.2,6.7"
   id="path90" />
	<path
   class="st16"
   d="M589.6,229c0,0,6.9-4.2,13.9-4.2c7,0,12,2.7,12,2.7"
   id="path92" />
	<path
   class="st16"
   d="M674.5,229c0,0-6.9-4.2-13.9-4.2c-7,0-12,2.7-12,2.7"
   id="path94" />
	<g
   id="g102">
		<path
   class="st17"
   d="M619,372.9l-17.6,5.7c-2.5,0.8-5.1-1-5.1-3.7v-12c0-2.6,2.6-4.5,5.1-3.7l17.6,5.7V372.9z"
   id="path96" />
		<path
   class="st17"
   d="M625,372.9l17.6,5.7c2.5,0.8,5.1-1,5.1-3.7v-12c0-2.6-2.6-4.5-5.1-3.7l-17.6,5.7V372.9z"
   id="path98" />
		<path
   class="st18"
   d="M624.7,374.8h-6c-1.7,0-3.1-1.4-3.1-3.1v-5.6c0-1.7,1.4-3.1,3.1-3.1h6c1.7,0,3.1,1.4,3.1,3.1v5.6    C627.9,373.4,626.5,374.8,624.7,374.8z"
   id="path100" />
	</g>
	<path
   class="st19"
   d="M592,355.9l-14.4,1.8l-23.3,48.1l18.5-3l-19.2,16.6c0,0,4.5,5.5,19.2,31.5c14.7,26,19.2,40.9,19.2,40.9V355.9   z"
   id="path104" />
	<rect
   x="546.4"
   y="547.6"
   class="st5"
   width="45.2"
   height="59.5"
   id="rect106" />
	<path
   class="st19"
   d="M650,355.9l14.2,1.8l23.2,48.1l-18.6-3l19.2,16.6c0,0-4.3,5.5-19,31.5c-14.7,26-19,40.9-19,40.9V355.9z"
   id="path108" />
	<path
   class="st20"
   d="M641.2,905.2l-4.6,37.9c-0.3,2.2,1.4,4.1,3.6,4.1h15.9c2,0,3.7-1.6,3.7-3.7v-3.6c0,0,15.1,7.3,22.3,7.3   s22.2-0.3,31.9-0.3c6.4,0,14.4-2.2,19-3.7c2.2-0.7,3.5-3,3-5.3l-1.7-7.1c-1.4-5.9-7.3-9.6-13.2-8.3l0,0c-3.9,0.9-8,0.4-11.6-1.4   l-33.1-16.1H641.2z"
   id="path110" />
	<path
   class="st20"
   d="M603.8,905.2l4.6,37.9c0.3,2.2-1.4,4.1-3.6,4.1h-15.9c-2,0-3.7-1.6-3.7-3.7v-3.6c0,0-15.1,7.3-22.3,7.3   c-7.2,0-22.2-0.3-31.9-0.3c-6.4,0-14.4-2.2-19-3.7c-2.2-0.7-3.5-3-3-5.3l1.7-7.1c1.4-5.9,7.3-9.6,13.2-8.3l0,0   c3.9,0.9,8,0.4,11.6-1.4l33.1-16.1H603.8z"
   id="path112" />
	<rect
   x="649.6"
   y="548.3"
   class="st5"
   width="48.8"
   height="59.5"
   id="rect114" />
	<g
   id="g140">
		<path
   class="st6"
   d="M826.7,366.8l11.4,0.8c2.4,0.2,4.4-1.6,4.6-4l2.8-37.3c0.3-4.4-3.7-8.3-9.1-8.8l-13.2-1    c-5.7-0.4-10.6,3-11,7.7l-2,26.6C809.5,359,816.9,366.1,826.7,366.8z"
   id="path116" />
		<path
   class="st12"
   d="M815.2,372.5L815.2,372.5c-1.6-1-2.2-3.1-1.2-4.7l89.6-150.6c0.4-0.7,1.3-0.9,2-0.5l0,0    c0.7,0.4,0.9,1.3,0.5,2l-86.2,152.6C818.9,372.8,816.8,373.4,815.2,372.5z"
   id="path118" />
		<path
   class="st10"
   d="M830.1,331.1l-0.2,0.4c-1.8,2.9-0.9,6.7,2,8.5l11.3,7c2.9,1.8,6.6,0.8,8.4-2.1l0.2-0.4    c1.8-2.9,1-6.7-1.9-8.5l-11.4-7C835.7,327.3,831.9,328.2,830.1,331.1z"
   id="path120" />
		<path
   class="st6"
   d="M830.8,332.4L830.8,332.4c-1.7,2.8-0.9,6.5,2,8.2l11.9,7.3c2.8,1.7,6.5,0.9,8.2-2l0,0c1.7-2.8,0.9-6.5-2-8.2    l-11.9-7.3C836.2,328.7,832.5,329.6,830.8,332.4z"
   id="path122" />
		<path
   class="st10"
   d="M836,319.6l-0.2,0.4c-1.8,2.9-0.9,6.7,2,8.5l11.3,7c2.9,1.8,6.6,0.8,8.4-2.1l0.2-0.4c1.8-2.9,1-6.7-1.9-8.5    l-11.4-7C841.5,315.7,837.8,316.6,836,319.6z"
   id="path124" />
		<path
   class="st6"
   d="M836.6,320.9L836.6,320.9c-1.7,2.8-0.9,6.5,2,8.2l11.9,7.3c2.8,1.7,6.5,0.9,8.2-2l0,0c1.7-2.8,0.9-6.5-2-8.2    l-11.9-7.3C842,317.2,838.3,318,836.6,320.9z"
   id="path126" />
		<path
   class="st10"
   d="M818.7,350.5L818.7,350.5c-1.7,2.8-0.9,6.5,2,8.2l10.9,6.7l6.3-10.2l-10.9-6.7    C824.1,346.8,820.4,347.7,818.7,350.5z"
   id="path128" />
		<path
   class="st6"
   d="M819.4,351.7L819.4,351.7c-1.6,2.6-0.8,6,1.8,7.6l10.6,6.5c2.6,1.6,6,0.8,7.6-1.8l0,0c1.6-2.6,0.8-6-1.8-7.6    l-10.6-6.5C824.4,348.3,821,349.1,819.4,351.7z"
   id="path130" />
		<path
   class="st10"
   d="M823,340.8l-0.3,0.5c-1.8,3-0.9,6.8,2.1,8.7l11.4,7c3,1.8,6.8,0.9,8.7-2.1l0.3-0.5c1.8-3,0.9-6.8-2.1-8.7    l-11.4-7C828.7,336.9,824.8,337.8,823,340.8z"
   id="path132" />
		<path
   class="st6"
   d="M823.8,341.7L823.8,341.7c-1.6,2.6-0.8,6,1.8,7.6l12.7,7.8c2.6,1.6,6,0.8,7.6-1.8v0c1.6-2.6,0.8-6-1.8-7.6    l-12.7-7.8C828.7,338.3,825.4,339.1,823.8,341.7z"
   id="path134" />
		<path
   class="st10"
   d="M824.2,325.6L824.2,325.6c1,0.8,3.9,0.7,5.9-1.3l11.6-12.7c2.8-3.1,3.1-7.4,0.7-9.6l0,0    c-2.4-2.2-6.7-1.6-9.5,1.5l-11.6,12.7C818.5,319.2,821.8,323.4,824.2,325.6z"
   id="path136" />
		<path
   class="st6"
   d="M820.3,324.2L820.3,324.2c2.4,2.2,6.2,2.1,8.5-0.4l13.7-14.9c2.2-2.4,2.1-6.2-0.4-8.5l0,0    c-2.4-2.2-6.2-2.1-8.5,0.4L820,315.7C817.7,318.2,817.9,322,820.3,324.2z"
   id="path138" />
	</g>
</g>
</svg>