<?xml version="1.0" encoding="UTF-8" standalone="no"?>
<!-- Generator: Adobe Illustrator 19.2.0, SVG Export Plug-In . SVG Version: 6.00 Build 0)  -->

<svg
   xmlns:dc="http://purl.org/dc/elements/1.1/"
   xmlns:cc="http://creativecommons.org/ns#"
   xmlns:rdf="http://www.w3.org/1999/02/22-rdf-syntax-ns#"
   xmlns:svg="http://www.w3.org/2000/svg"
   xmlns="http://www.w3.org/2000/svg"
   xmlns:sodipodi="http://sodipodi.sourceforge.net/DTD/sodipodi-0.dtd"
   xmlns:inkscape="http://www.inkscape.org/namespaces/inkscape"
   version="1.1"
   id="Layer_1"
   x="0px"
   y="0px"
   viewBox="0 0 1920 1080"
   style="enable-background:new 0 0 1920 1080;"
   xml:space="preserve"
   sodipodi:docname="Professor_Holding_Books_Cartoon.svg"
   inkscape:export-filename="/home/gpetit/Nextcloud/Plateformes/Noise_Planet/Noise_Planet/Kit_pedagogique/Presentation_generale/Images/Professor_Holding_Books_Cartoon.png"
   inkscape:export-xdpi="96"
   inkscape:export-ydpi="96"
   inkscape:version="0.92.4 (f8dce91, 2019-08-02)"><metadata
   id="metadata175"><rdf:RDF><cc:Work
       rdf:about=""><dc:format>image/svg+xml</dc:format><dc:type
         rdf:resource="http://purl.org/dc/dcmitype/StillImage" /></cc:Work></rdf:RDF></metadata><defs
   id="defs173" /><sodipodi:namedview
   pagecolor="#ffffff"
   bordercolor="#666666"
   borderopacity="1"
   objecttolerance="10"
   gridtolerance="10"
   guidetolerance="10"
   inkscape:pageopacity="0"
   inkscape:pageshadow="2"
   inkscape:window-width="1878"
   inkscape:window-height="1136"
   id="namedview171"
   showgrid="false"
   inkscape:zoom="0.21851852"
   inkscape:cx="960"
   inkscape:cy="540"
   inkscape:window-x="42"
   inkscape:window-y="27"
   inkscape:window-maximized="1"
   inkscape:current-layer="Layer_1" />
<style
   type="text/css"
   id="style2">
	.st0{fill:#AA6F3D;}
	.st1{fill:#774829;}
	.st2{fill:#A8C4CC;}
	.st3{fill:#FFFFFF;}
	.st4{fill:#F8C09D;}
	.st5{fill:#E6E6E6;}
	.st6{fill:#F6AE8D;}
	.st7{fill:#EF937E;}
	.st8{fill:#333333;}
	.st9{opacity:0.81;fill:#DAEEF2;}
	.st10{opacity:0.81;fill:#FFFFFF;}
	.st11{fill:none;stroke:#333333;stroke-width:3;stroke-miterlimit:10;}
	.st12{fill:none;stroke:#DAEEF2;stroke-width:10;stroke-miterlimit:10;}
	.st13{fill:#D13924;}
	.st14{fill:#E8533A;}
	.st15{fill:#CC7C40;}
	.st16{fill:#4C2A0F;}
	.st17{fill:#C1272D;}
	.st18{fill:#AD1F2A;}
	.st19{fill:#FBB03B;}
	.st20{fill:#8C6239;}
	.st21{fill:#7F532F;}
	.st22{fill:#603813;}
	.st23{fill:#0071BC;}
	.st24{fill:#04679E;}
	.st25{fill:#2E3192;}
	.st26{fill:#2DAFD3;}
	.st27{fill:#229EBA;}
	.st28{fill:#0F6193;}
	.st29{fill:#39B54A;}
	.st30{fill:#009245;}
	.st31{fill:none;stroke:#754C24;stroke-width:3.5209;stroke-miterlimit:10;}
	.st32{fill:#AD212B;}
	.st33{fill:#D84853;}
</style>
<g
   id="g168">
	<path
   class="st0"
   d="M981.7,480.5L981.7,480.5c2.3,9.9,12.1,16.2,22.1,13.9L1127,465l-8.2-36l-123.3,29.4   C985.6,460.7,979.4,470.6,981.7,480.5z"
   id="path4" />
	<path
   class="st1"
   d="M880.3,624H879c-41.6,0-75.4-34.2-75.4-75.8V548h152v0.2C955.6,589.8,921.9,624,880.3,624z"
   id="path6" />
	<path
   class="st0"
   d="M914.6,345.5L914.6,345.5c-8.5,5.6-10.9,17-5.3,25.5L984.5,486c5.6,8.5,17,10.9,25.5,5.3l0,0   c8.5-5.6,10.9-17,5.3-25.5l-75.3-114.9C934.6,342.3,923.1,339.9,914.6,345.5z"
   id="path8" />
	<path
   class="st0"
   d="M706.1,443.7L706.1,443.7c5.4,8.6,16.8,11.2,25.5,5.7L847.6,376c8.6-5.4,11.2-16.8,5.7-25.5v0   c-5.4-8.6-16.8-11.2-25.5-5.7l-116.1,73.5C703.2,423.7,700.7,435.1,706.1,443.7z"
   id="path10" />
	<path
   class="st0"
   d="M710.7,417.9L710.7,417.9c-8.8,5.1-11.9,16.3-6.8,25.2l68.3,119.2c5.1,8.8,16.3,11.9,25.2,6.8h0   c8.8-5.1,11.9-16.3,6.8-25.2l-68.3-119.2C730.8,415.9,719.5,412.9,710.7,417.9z"
   id="path12" />
	<polygon
   class="st1"
   points="861,890 824.6,890 803.6,548 865.6,548  "
   id="polygon14" />
	<polygon
   class="st1"
   points="898.4,890 933.6,890 955.6,548 892.6,548  "
   id="polygon16" />
	<path
   class="st0"
   d="M850.8,340.4h57.7c26,0,47.2,21.1,47.2,47.2V548h-152V387.6C803.6,361.5,824.7,340.4,850.8,340.4z"
   id="path18" />
	<rect
   x="848.8"
   y="340.4"
   class="st2"
   width="58"
   height="207.6"
   id="rect20" />
	<path
   class="st3"
   d="M903.4,352.8c0,13.4-10.9,24.5-24.3,24.5h0h-0.2c-13.4,0-24.5-11.1-24.5-24.5v-21.5h49V352.8z"
   id="path22" />
	<rect
   x="854.4"
   y="311.3"
   class="st4"
   width="49"
   height="46"
   id="rect24" />
	<path
   class="st5"
   d="M855.5,181.7c0-5.6-2.6-10.7-6.6-14c0.4-1.3,0.6-2.7,0.6-4.2c0-8.4-6.8-15.2-15.2-15.2c-5.5,0-10.4,3-13,7.4   c-2.8-1.8-6.1-2.8-9.6-2.8c-10.1,0-18.2,8.2-18.2,18.2c0,1.9,0.3,3.7,0.8,5.3c-7,2.6-12,9.3-12,17.2c0,7.4,4.3,13.7,10.5,16.6   c-1.6,2.4-2.5,5.3-2.5,8.4c0,8.4,6.8,15.2,15.2,15.2c7.7,0,14-5.7,15-13.1c1.5,0.3,3,0.5,4.5,0.5c11.8,0,21.4-9.6,21.4-21.4   c0-0.8-0.1-1.6-0.1-2.4C851.8,194.4,855.5,188.5,855.5,181.7z"
   id="path26" />
	<path
   class="st5"
   d="M986.5,200.4c0,5.6-2.6,10.7-6.6,14c0.4,1.3,0.6,2.7,0.6,4.2c0,8.4-6.8,15.2-15.2,15.2c-5.5,0-10.4-3-13-7.4   c-2.8,1.8-6.1,2.8-9.6,2.8c-10.1,0-18.2-8.2-18.2-18.2c0-1.9,0.3-3.7,0.8-5.3c-7-2.6-12-9.3-12-17.2c0-7.4,4.3-13.7,10.5-16.6   c-1.6-2.4-2.5-5.3-2.5-8.4c0-8.4,6.8-15.2,15.2-15.2c7.7,0,14,5.7,15,13.1c1.5-0.3,3-0.5,4.5-0.5c11.8,0,21.4,9.6,21.4,21.4   c0,0.8-0.1,1.6-0.1,2.4C982.8,187.7,986.5,193.7,986.5,200.4z"
   id="path28" />
	<path
   class="st6"
   d="M854.4,327.2c9.5,4.1,19.4,6.3,28.9,6.3c6.6,0,13.4-1.1,20.1-3.1v-15.5h-49V327.2z"
   id="path30" />
	<path
   class="st4"
   d="M883.3,322.4c-31.9,0-70.3-27.9-70.3-66.9v-42.8c0-32.9,26.7-59.6,59.6-59.6h21.6c32.9,0,59.6,26.7,59.6,59.6   v42.8C954,294.5,915.2,322.4,883.3,322.4z"
   id="path32" />
	<circle
   class="st4"
   cx="812.7"
   cy="223.7"
   r="20"
   id="circle34" />
	<path
   class="st7"
   d="M808.7,226.5c0-3.9,3.2-7.1,7.1-7.1c1.1,0,2.1,0.2,3,0.7c-1.2-2.1-3.5-3.5-6.1-3.5c-3.9,0-7.1,3.2-7.1,7.1   c0,2.8,1.7,5.3,4.1,6.4C809.1,229.1,808.7,227.8,808.7,226.5z"
   id="path36" />
	<ellipse
   class="st8"
   cx="860.6"
   cy="226.1"
   rx="4.6"
   ry="8.1"
   id="ellipse38" />
	<ellipse
   class="st8"
   cx="918.6"
   cy="226.1"
   rx="4.6"
   ry="8.1"
   id="ellipse40" />
	<circle
   class="st4"
   cx="955.5"
   cy="223.7"
   r="20"
   id="circle42" />
	<path
   class="st7"
   d="M962.1,226.5c0-3.9-3.2-7.1-7.1-7.1c-1.1,0-2.1,0.2-3,0.7c1.2-2.1,3.5-3.5,6.1-3.5c3.9,0,7.1,3.2,7.1,7.1   c0,2.8-1.7,5.3-4.1,6.4C961.8,229.1,962.1,227.8,962.1,226.5z"
   id="path44" />
	<path
   class="st7"
   d="M866.4,262.6c0,12.5,10.1,22.6,22.6,22.6l0,0c12.5,0,22.6-10.1,22.6-22.6"
   id="path46" />
	<path
   class="st5"
   d="M915.5,273.9h-54c-2.3,0-3.5-2.8-1.9-4.4l13.2-14.1c1.7-1.8,4-2.8,6.4-2.8h18.6c2.4,0,4.7,1,6.4,2.8l13.2,14.1   C919,271.1,917.8,273.9,915.5,273.9z"
   id="path48" />
	<path
   class="st7"
   d="M882.5,233.5V254c0,0.9,1.1,1.6,2.1,1.6h12.1c3.3,0,5.1-3.8,3-6.4l-14-16.9   C884.7,231.2,882.5,231.9,882.5,233.5z"
   id="path50" />
	<circle
   class="st9"
   cx="872.9"
   cy="243.7"
   r="10.7"
   id="circle52" />
	<g
   id="g58">
		<path
   class="st10"
   d="M877.2,234c-1.3-0.6-2.8-0.9-4.4-0.9c-5.9,0-10.7,4.8-10.7,10.7c0,2.7,1,5.2,2.7,7.1    C868.8,245.3,874.1,238,877.2,234z"
   id="path54" />
		<path
   class="st10"
   d="M872.6,254.4c0.1,0,0.2,0,0.3,0c5.9,0,10.7-4.8,10.7-10.7c0-1.2-0.2-2.3-0.5-3.3L872.6,254.4z"
   id="path56" />
	</g>
	<circle
   class="st9"
   cx="908.8"
   cy="243.7"
   r="10.7"
   id="circle60" />
	<g
   id="g66">
		<path
   class="st10"
   d="M913.2,234c-1.3-0.6-2.8-0.9-4.4-0.9c-5.9,0-10.7,4.8-10.7,10.7c0,2.7,1,5.2,2.7,7.1    C904.8,245.3,910.1,238,913.2,234z"
   id="path62" />
		<path
   class="st10"
   d="M908.6,254.4c0.1,0,0.2,0,0.3,0c5.9,0,10.7-4.8,10.7-10.7c0-1.2-0.2-2.3-0.5-3.3L908.6,254.4z"
   id="path64" />
	</g>
	<circle
   class="st11"
   cx="872.9"
   cy="243.7"
   r="10.7"
   id="circle68" />
	<circle
   class="st11"
   cx="908.8"
   cy="243.7"
   r="10.7"
   id="circle70" />
	<path
   class="st11"
   d="M881.6,237.7c0,0,3.3-6.7,9.2-6.7c5.9,0,9.2,6.7,9.2,6.7"
   id="path72" />
	<path
   class="st12"
   d="M846.7,213.6c0,0,6.9-4.2,13.9-4.2c7,0,12,2.7,12,2.7"
   id="path74" />
	<path
   class="st12"
   d="M931.6,213.6c0,0-6.9-4.2-13.9-4.2c-7,0-12,2.7-12,2.7"
   id="path76" />
	<g
   id="g84">
		<path
   class="st13"
   d="M876.2,357.4l-17.6,5.7c-2.5,0.8-5.1-1-5.1-3.7v-12c0-2.6,2.6-4.5,5.1-3.7l17.6,5.7V357.4z"
   id="path78" />
		<path
   class="st13"
   d="M882.2,357.4l17.6,5.7c2.5,0.8,5.1-1,5.1-3.7v-12c0-2.6-2.6-4.5-5.1-3.7l-17.6,5.7V357.4z"
   id="path80" />
		<path
   class="st14"
   d="M881.9,359.3h-6c-1.7,0-3.1-1.4-3.1-3.1v-5.6c0-1.7,1.4-3.1,3.1-3.1h6c1.7,0,3.1,1.4,3.1,3.1v5.6    C885.1,357.9,883.7,359.3,881.9,359.3z"
   id="path82" />
	</g>
	<path
   class="st15"
   d="M848,340.4l-13.9,1.8l-23.1,48.1l18.7-3l-19.1,16.6c0,0,4,5.5,18.7,31.5c14.7,26,18.7,40.9,18.7,40.9V340.4z"
   id="path86" />
	<rect
   x="803.6"
   y="532.1"
   class="st0"
   width="45.2"
   height="59.5"
   id="rect88" />
	<path
   class="st15"
   d="M906,340.4l14.7,1.8l23.5,48.1l-18.4-3l19.2,16.6c0,0-4.8,5.5-19.5,31.5c-14.7,26-19.5,40.9-19.5,40.9V340.4z   "
   id="path90" />
	<g
   id="g104">
		<path
   class="st4"
   d="M780.1,562.6l-8.9,7l22,27.8c1.9,2.5,5.5,2.9,8,0.9l0,0c2.5-1.9,2.9-5.5,0.9-8L780.1,562.6z"
   id="path92" />
		<path
   class="st4"
   d="M789.1,555.9l-8.9,7l26.6,33.7c1.9,2.5,5.5,2.9,8,0.9h0c2.5-1.9,2.9-5.5,0.9-8L789.1,555.9z"
   id="path94" />
		<path
   class="st4"
   d="M800.8,552.5l-8.9,7l26.6,33.7c1.9,2.5,5.5,2.9,8,0.9h0c2.5-1.9,2.9-5.5,0.9-8L800.8,552.5z"
   id="path96" />
		<path
   class="st4"
   d="M805.9,541.1l-8.9,7l26.6,33.7c1.9,2.5,5.5,2.9,8,0.9l0,0c2.5-1.9,2.9-5.5,0.9-8L805.9,541.1z"
   id="path98" />
		<path
   class="st4"
   d="M797.1,535.6l-1.2,11.3l25.7,2.8c3.1,0.3,5.9-1.9,6.3-5l0,0c0.3-3.1-1.9-5.9-5-6.3L797.1,535.6z"
   id="path100" />
		<path
   class="st4"
   d="M803.7,538.4l6.6,6.2c1.2,1.1,1.2,3,0.1,4.2l-27.3,28.7c-1.1,1.2-3,1.2-4.2,0.1l-6.6-6.2    c-4.5-4.3-4.7-11.5-0.4-16l15.8-16.7C792,534.3,799.2,534.1,803.7,538.4z"
   id="path102" />
	</g>
	<path
   class="st16"
   d="M898.4,889.7l-4.6,37.9c-0.3,2.2,1.4,4.1,3.6,4.1h15.9c2,0,3.7-1.6,3.7-3.7v-3.6c0,0,15.1,7.3,22.3,7.3   c7.2,0,22.2-0.3,31.9-0.3c6.4,0,14.4-2.2,19-3.7c2.2-0.7,3.5-3,3-5.3l-1.7-7.1c-1.4-5.9-7.3-9.6-13.2-8.3l0,0   c-3.9,0.9-8,0.4-11.6-1.4l-33.1-16.1H898.4z"
   id="path106" />
	<path
   class="st16"
   d="M861,889.7l4.6,37.9c0.3,2.2-1.4,4.1-3.6,4.1H846c-2,0-3.7-1.6-3.7-3.7v-3.6c0,0-15.1,7.3-22.3,7.3   s-22.2-0.3-31.9-0.3c-6.4,0-14.4-2.2-19-3.7c-2.2-0.7-3.5-3-3-5.3l1.7-7.1c1.4-5.9,7.3-9.6,13.2-8.3h0c3.9,0.9,8,0.4,11.6-1.4   l33.1-16.1L861,889.7z"
   id="path108" />
	<rect
   x="906.8"
   y="532.8"
   class="st0"
   width="48.8"
   height="59.5"
   id="rect110" />
	<path
   class="st4"
   d="M1139.9,421.5c-6.2,4.2-14.8,8.9-18.5,10.9c-1.1,0.6-1.6,1.8-1.3,2.9l5.3,23.1c0.3,1.2,1.3,2.1,2.6,2.1   c11.5,0.1,20.9,0.5,36.7-7c22.6-10.7,23.4-18.8,20.6-22.5c-1.7-2.2-5.3-0.8-7.8,0.7c4.7-4.4-0.1-9.6-6.2-6.9   c-0.4-1.1-2.9-6.7-10.6-1.9c-3.6,2.2-11.6,5.7-16,6.6c0.8-0.5,1.7-1.1,2.6-1.7C1153.7,423.5,1148.1,416.1,1139.9,421.5z"
   id="path112" />
	<g
   id="g166">
		
			<rect
   x="1127.1"
   y="285.4"
   transform="matrix(4.502691e-11 1 -1 4.502691e-11 1499.2667 -792.3845)"
   class="st17"
   width="37.5"
   height="136.1"
   id="rect114" />
		
			<rect
   x="1141.5"
   y="299.8"
   transform="matrix(4.559001e-11 1 -1 4.559001e-11 1513.7423 -777.9089)"
   class="st18"
   width="8.6"
   height="136.1"
   id="rect116" />
		
			<rect
   x="1172.6"
   y="342.7"
   transform="matrix(4.473647e-11 1 -1 4.473647e-11 1544.8252 -837.9429)"
   class="st19"
   width="37.5"
   height="21.4"
   id="rect118" />
		
			<rect
   x="1126.4"
   y="242.5"
   transform="matrix(4.509530e-11 1 -1 4.509530e-11 1461.0934 -830.3422)"
   class="st20"
   width="38.6"
   height="145.8"
   id="rect120" />
		
			<rect
   x="1141.4"
   y="257.5"
   transform="matrix(4.559001e-11 1 -1 4.559001e-11 1476.1051 -815.3304)"
   class="st21"
   width="8.6"
   height="145.8"
   id="rect122" />
		
			<rect
   x="1085.1"
   y="304.7"
   transform="matrix(4.354010e-11 1 -1 4.354010e-11 1419.8036 -789.0524)"
   class="st22"
   width="38.6"
   height="21.4"
   id="rect124" />
		<rect
   x="1084.1"
   y="296.1"
   class="st22"
   width="3.2"
   height="38.6"
   id="rect126" />
		
			<rect
   x="1181.1"
   y="306.8"
   transform="matrix(4.481286e-11 1 -1 4.481286e-11 1515.7635 -885.0123)"
   class="st22"
   width="38.6"
   height="17.2"
   id="rect128" />
		<rect
   x="1171"
   y="334.7"
   class="st19"
   width="3.2"
   height="37.5"
   id="rect130" />
		
			<rect
   x="1116.4"
   y="318.6"
   transform="matrix(4.490079e-11 1 -1 4.490079e-11 1522.928 -744.2037)"
   class="st23"
   width="34.3"
   height="141.5"
   id="rect132" />
		
			<rect
   x="1129.3"
   y="331.5"
   transform="matrix(4.431814e-11 1 -1 4.431814e-11 1535.7952 -731.3365)"
   class="st24"
   width="8.6"
   height="141.5"
   id="rect134" />
		<path
   class="st25"
   d="M1096.6,399c-5.6,0-10.2-4.6-10.2-10.2l0,0c0-5.6,4.6-10.2,10.2-10.2h83.6c5.6,0,10.2,4.6,10.2,10.2l0,0    c0,5.6-4.6,10.2-10.2,10.2H1096.6z"
   id="path136" />
		<path
   class="st19"
   d="M1109.9,364.4v-19.8c0-0.7,0.6-1.3,1.3-1.3h35.9c0.7,0,1.3,0.6,1.3,1.3v19.8c0,0.7-0.6,1.3-1.3,1.3h-35.9    C1110.5,365.8,1109.9,365.2,1109.9,364.4z"
   id="path138" />
		
			<rect
   x="1119.5"
   y="357.4"
   transform="matrix(1.107873e-03 1 -1 1.107873e-03 1562.5532 -713.4006)"
   class="st26"
   width="37.7"
   height="136.1"
   id="rect140" />
		
			<rect
   x="1133.8"
   y="371.7"
   transform="matrix(1.107873e-03 1 -1 1.107873e-03 1576.8289 -699.1724)"
   class="st27"
   width="9.2"
   height="136.1"
   id="rect142" />
		
			<rect
   x="1190.5"
   y="406.6"
   transform="matrix(1 -1.107873e-03 1.107873e-03 1 -0.4705 1.3209)"
   class="st28"
   width="3.2"
   height="37.5"
   id="rect144" />
		
			<rect
   x="1182.8"
   y="406.6"
   transform="matrix(1 -1.107873e-03 1.107873e-03 1 -0.4705 1.3125)"
   class="st28"
   width="3.2"
   height="37.5"
   id="rect146" />
		<ellipse
   class="st22"
   cx="1169.3"
   cy="315.5"
   rx="10.9"
   ry="10.9"
   id="ellipse148" />
		<path
   class="st28"
   d="M1101.8,433.4l0-14.6c0-1,0.8-1.8,1.8-1.8l64.2-0.1c1,0,1.8,0.8,1.8,1.8l0,14.6c0,1-0.8,1.8-1.8,1.8    l-64.2,0.1C1102.6,435.2,1101.8,434.4,1101.8,433.4z"
   id="path150" />
		<path
   class="st29"
   d="M1137.3,238.8c0,0-4.3,5-10.5,4.6s-10.4-6.1-10.4-6.1s4.2-5.2,11.1-4.7S1137.3,238.8,1137.3,238.8z"
   id="path152" />
		<path
   class="st30"
   d="M1137.4,238.9c0,0-5.9,1.7-10.3-2.7c-4.4-4.4-4.6-12-4.6-12s7.2-0.6,12.2,4.3    C1139.7,233.4,1137.4,238.9,1137.4,238.9z"
   id="path154" />
		<path
   class="st31"
   d="M1138.4,253.7c0,0-1.1-3,0-10.4s4.3-11.5,4.3-11.5"
   id="path156" />
		<path
   class="st32"
   d="M1165.5,268c-0.5-8.8-5-15.7-14.3-17.9c-7.8-1.9-7.4,4.5-12.8,4.5s-5.1-6.3-12.8-4.5    c-9.3,2.2-13.8,9.1-14.3,17.9c-0.5,8.8,10.8,38.5,25.2,26.4v0.2c0,0,0.8-0.8,2-0.9c1.1,0.1,2,0.9,2,0.9v-0.2    C1154.8,306.5,1166.1,276.8,1165.5,268z"
   id="path158" />
		<path
   class="st17"
   d="M1165.5,265.4c-0.5-8.8-5-15.7-14.3-17.9c-7.8-1.9-7.4,4.5-12.8,4.5s-5.1-6.3-12.8-4.5    c-9.3,2.2-13.8,9.1-14.3,17.9c-0.5,8.8,10.8,38.5,25.2,26.4v0.2c0,0,0.8-0.8,2-0.9c1.1,0.1,2,0.9,2,0.9v-0.2    C1154.8,303.9,1166.1,274.1,1165.5,265.4z"
   id="path160" />
		<g
   id="g164">
			<path
   class="st33"
   d="M1165.5,265.4c-0.5-8.8-5-15.7-14.3-17.9c-4.8-1.2-6.5,0.8-8.4,2.5c1.1-0.3,2.5-0.3,4.4,0.1     c5.8,1.3,10.8,4.3,14,12.5c2,5.2,2.5,12.6,2.5,12.6S1165.7,268.6,1165.5,265.4z"
   id="path162" />
		</g>
	</g>
</g>
</svg>