<?xml version="1.0" encoding="UTF-8" standalone="no"?>
<!-- Generator: Adobe Illustrator 19.2.0, SVG Export Plug-In . SVG Version: 6.00 Build 0)  -->

<svg
   xmlns:dc="http://purl.org/dc/elements/1.1/"
   xmlns:cc="http://creativecommons.org/ns#"
   xmlns:rdf="http://www.w3.org/1999/02/22-rdf-syntax-ns#"
   xmlns:svg="http://www.w3.org/2000/svg"
   xmlns="http://www.w3.org/2000/svg"
   xmlns:sodipodi="http://sodipodi.sourceforge.net/DTD/sodipodi-0.dtd"
   xmlns:inkscape="http://www.inkscape.org/namespaces/inkscape"
   version="1.1"
   id="Layer_1"
   x="0px"
   y="0px"
   viewBox="0 0 1920 1080"
   style="enable-background:new 0 0 1920 1080;"
   xml:space="preserve"
   sodipodi:docname="Professor_Pointing_Cartoon.svg"
   inkscape:export-filename="/home/gpetit/Nextcloud/Plateformes/Noise_Planet/Noise_Planet/Kit_pedagogique/Presentation_generale/Images/Professor_Pointing_Cartoon.png"
   inkscape:export-xdpi="96"
   inkscape:export-ydpi="96"
   inkscape:version="0.92.4 (f8dce91, 2019-08-02)"><metadata
   id="metadata133"><rdf:RDF><cc:Work
       rdf:about=""><dc:format>image/svg+xml</dc:format><dc:type
         rdf:resource="http://purl.org/dc/dcmitype/StillImage" /></cc:Work></rdf:RDF></metadata><defs
   id="defs131" /><sodipodi:namedview
   pagecolor="#ffffff"
   bordercolor="#666666"
   borderopacity="1"
   objecttolerance="10"
   gridtolerance="10"
   guidetolerance="10"
   inkscape:pageopacity="0"
   inkscape:pageshadow="2"
   inkscape:window-width="1878"
   inkscape:window-height="1136"
   id="namedview129"
   showgrid="false"
   inkscape:zoom="0.21851852"
   inkscape:cx="960"
   inkscape:cy="540"
   inkscape:window-x="42"
   inkscape:window-y="27"
   inkscape:window-maximized="1"
   inkscape:current-layer="Layer_1" />
<style
   type="text/css"
   id="style2">
	.st0{fill:#AA6F3D;}
	.st1{fill:#774829;}
	.st2{fill:#F8C09D;}
	.st3{fill:#A8C4CC;}
	.st4{fill:#FFFFFF;}
	.st5{fill:#E6E6E6;}
	.st6{fill:#F6AE8D;}
	.st7{fill:#EF937E;}
	.st8{fill:#333333;}
	.st9{opacity:0.81;fill:#DAEEF2;}
	.st10{opacity:0.81;fill:#FFFFFF;}
	.st11{fill:none;stroke:#333333;stroke-width:3;stroke-miterlimit:10;}
	.st12{fill:none;stroke:#DAEEF2;stroke-width:10;stroke-miterlimit:10;}
	.st13{fill:#D13924;}
	.st14{fill:#E8533A;}
	.st15{fill:#CC7C40;}
	.st16{fill:#4C2A0F;}
</style>
<g
   id="g126">
	<path
   class="st0"
   d="M1104,475L1104,475c10.1,1.2,19.3-6.1,20.4-16.2l15.5-136.5c1.2-10.1-6.1-19.3-16.2-20.4l0,0   c-10.1-1.2-19.3,6.1-20.4,16.2l-15.5,136.5C1086.6,464.8,1093.9,473.9,1104,475z"
   id="path4" />
	<path
   class="st1"
   d="M953.2,624h-1.3c-41.6,0-75.4-34.2-75.4-75.8V548h152v0.2C1028.5,589.8,994.8,624,953.2,624z"
   id="path6" />
	<path
   class="st0"
   d="M983,350.1L983,350.1c-6.7,7.6-6,19.3,1.6,26l102.9,91c7.6,6.7,19.3,6,26-1.6v0c6.7-7.6,6-19.3-1.6-26   l-102.9-91C1001.4,341.8,989.7,342.5,983,350.1z"
   id="path8" />
	<path
   class="st0"
   d="M779,443.7L779,443.7c5.4,8.6,16.8,11.2,25.5,5.7L920.6,376c8.6-5.4,11.2-16.8,5.7-25.5l0,0   c-5.4-8.6-16.8-11.2-25.5-5.7l-116.1,73.5C776.1,423.7,773.6,435.1,779,443.7z"
   id="path10" />
	<path
   class="st0"
   d="M783.6,417.9L783.6,417.9c-8.8,5.1-11.9,16.3-6.8,25.2L845,562.3c5.1,8.8,16.3,11.9,25.2,6.8l0,0   c8.8-5.1,11.9-16.3,6.8-25.2l-68.3-119.2C803.7,415.9,792.4,412.9,783.6,417.9z"
   id="path12" />
	<polygon
   class="st1"
   points="933.9,890 897.5,890 876.5,548 938.5,548  "
   id="polygon14" />
	<polygon
   class="st1"
   points="971.3,890 1006.5,890 1028.5,548 965.5,548  "
   id="polygon16" />
	<path
   class="st0"
   d="M923.7,340.4h57.7c26,0,47.2,21.1,47.2,47.2V548h-152V387.6C876.5,361.5,897.7,340.4,923.7,340.4z"
   id="path18" />
	<g
   id="g32">
		<path
   class="st2"
   d="M1105.6,344.2L1105.6,344.2c1.9-3,1-6.9-1.9-8.8l-24.7-15.9c-3-1.9-6.9-1-8.8,1.9v0c-1.9,3-1,6.9,1.9,8.8    l24.7,15.9C1099.7,348.1,1103.7,347.2,1105.6,344.2z"
   id="path20" />
		<path
   class="st2"
   d="M1141.8,343.4l1.2-10.3c0.5-4.4-2.6-8.5-7.1-9l-34.8-4.2c-4.4-0.5-8.5,2.6-9,7.1l-1.2,10.3    c-0.6,4.7,2.8,9,7.5,9.6l33.8,4.1C1136.9,351.5,1141.2,348.1,1141.8,343.4z"
   id="path22" />
		<path
   class="st2"
   d="M1097.1,338.9L1097.1,338.9c3.5,0.4,6.7-2.1,7.1-5.6l7.2-59c0.4-3.5-2.1-6.7-5.6-7.1l0,0    c-3.5-0.4-6.7,2.1-7.1,5.6l-7.2,59C1091.1,335.3,1093.6,338.5,1097.1,338.9z"
   id="path24" />
		<path
   class="st2"
   d="M1110.5,334.7L1110.5,334.7c3.5,0.4,6.7-2.1,7.1-5.6l3.5-29.2c0.4-3.5-2.1-6.7-5.6-7.1l0,0    c-3.5-0.4-6.7,2.1-7.1,5.6l-3.5,29.2C1104.5,331.1,1107,334.3,1110.5,334.7z"
   id="path26" />
		<path
   class="st2"
   d="M1122.9,339.4L1122.9,339.4c3.5,0.4,6.7-2.1,7.1-5.6l3.5-29.2c0.4-3.5-2.1-6.7-5.6-7.1l0,0    c-3.5-0.4-6.7,2.1-7.1,5.6l-3.5,29.2C1116.8,335.8,1119.4,339,1122.9,339.4z"
   id="path28" />
		<path
   class="st2"
   d="M1135,345.6L1135,345.6c3.5,0.4,6.7-2.1,7.1-5.6l3.5-29.2c0.4-3.5-2.1-6.7-5.6-7.1l0,0    c-3.5-0.4-6.7,2.1-7.1,5.6l-3.5,29.2C1129,342,1131.5,345.2,1135,345.6z"
   id="path30" />
	</g>
	<rect
   x="921.7"
   y="340.4"
   class="st3"
   width="58"
   height="207.6"
   id="rect34" />
	<path
   class="st4"
   d="M976.3,352.8c0,13.4-10.9,24.5-24.3,24.5h0h-0.2c-13.4,0-24.5-11.1-24.5-24.5v-21.5h49V352.8z"
   id="path36" />
	<rect
   x="927.3"
   y="311.3"
   class="st2"
   width="49"
   height="46"
   id="rect38" />
	<path
   class="st5"
   d="M928.4,181.7c0-5.6-2.6-10.7-6.6-14c0.4-1.3,0.6-2.7,0.6-4.2c0-8.4-6.8-15.2-15.2-15.2c-5.5,0-10.4,3-13,7.4   c-2.8-1.8-6.1-2.8-9.6-2.8c-10.1,0-18.2,8.2-18.2,18.2c0,1.9,0.3,3.7,0.8,5.3c-7,2.6-12,9.3-12,17.2c0,7.4,4.3,13.7,10.5,16.6   c-1.6,2.4-2.5,5.3-2.5,8.4c0,8.4,6.8,15.2,15.2,15.2c7.7,0,14-5.7,15-13.1c1.5,0.3,3,0.5,4.5,0.5c11.8,0,21.4-9.6,21.4-21.4   c0-0.8-0.1-1.6-0.1-2.4C924.7,194.4,928.4,188.5,928.4,181.7z"
   id="path40" />
	<path
   class="st5"
   d="M1059.4,200.4c0,5.6-2.6,10.7-6.6,14c0.4,1.3,0.6,2.7,0.6,4.2c0,8.4-6.8,15.2-15.2,15.2c-5.5,0-10.4-3-13-7.4   c-2.8,1.8-6.1,2.8-9.7,2.8c-10.1,0-18.2-8.2-18.2-18.2c0-1.9,0.3-3.7,0.8-5.3c-7-2.6-12-9.3-12-17.2c0-7.4,4.3-13.7,10.5-16.6   c-1.6-2.4-2.5-5.3-2.5-8.4c0-8.4,6.8-15.2,15.2-15.2c7.7,0,14,5.7,15,13.1c1.5-0.3,3-0.5,4.5-0.5c11.8,0,21.4,9.6,21.4,21.4   c0,0.8-0.1,1.6-0.1,2.4C1055.7,187.7,1059.4,193.7,1059.4,200.4z"
   id="path42" />
	<path
   class="st6"
   d="M927.3,327.2c9.5,4.1,19.4,6.3,28.9,6.3c6.6,0,13.4-1.1,20.1-3.1v-15.5h-49V327.2z"
   id="path44" />
	<path
   class="st2"
   d="M956.3,322.4c-31.9,0-70.3-27.9-70.3-66.9v-42.8c0-32.9,26.7-59.6,59.6-59.6h21.6c32.9,0,59.6,26.7,59.6,59.6   v42.8C1026.9,294.5,988.2,322.4,956.3,322.4z"
   id="path46" />
	<circle
   class="st2"
   cx="885.6"
   cy="223.7"
   r="20"
   id="circle48" />
	<path
   class="st7"
   d="M881.6,226.5c0-3.9,3.2-7.1,7.1-7.1c1.1,0,2.1,0.2,3,0.7c-1.2-2.1-3.5-3.5-6.1-3.5c-3.9,0-7.1,3.2-7.1,7.1   c0,2.8,1.7,5.3,4.1,6.4C882,229.1,881.6,227.8,881.6,226.5z"
   id="path50" />
	<ellipse
   class="st8"
   cx="933.5"
   cy="226.1"
   rx="4.6"
   ry="8.1"
   id="ellipse52" />
	<ellipse
   class="st8"
   cx="991.6"
   cy="226.1"
   rx="4.6"
   ry="8.1"
   id="ellipse54" />
	<circle
   class="st2"
   cx="1028.5"
   cy="223.7"
   r="20"
   id="circle56" />
	<path
   class="st7"
   d="M1035.1,226.5c0-3.9-3.2-7.1-7.1-7.1c-1.1,0-2.1,0.2-3,0.7c1.2-2.1,3.5-3.5,6.1-3.5c3.9,0,7.1,3.2,7.1,7.1   c0,2.8-1.7,5.3-4.1,6.4C1034.7,229.1,1035.1,227.8,1035.1,226.5z"
   id="path58" />
	<path
   class="st7"
   d="M939.3,262.6c0,12.5,10.1,22.6,22.6,22.6h0c12.5,0,22.6-10.1,22.6-22.6"
   id="path60" />
	<path
   class="st5"
   d="M988.4,273.9h-54c-2.3,0-3.5-2.8-1.9-4.4l13.2-14.1c1.7-1.8,4-2.8,6.4-2.8h18.6c2.4,0,4.7,1,6.4,2.8l13.2,14.1   C991.9,271.1,990.7,273.9,988.4,273.9z"
   id="path62" />
	<path
   class="st7"
   d="M955.5,233.5V254c0,0.9,1.1,1.6,2.1,1.6h12.1c3.3,0,5.1-3.8,3-6.4l-14-16.9   C957.6,231.2,955.5,231.9,955.5,233.5z"
   id="path64" />
	<circle
   class="st9"
   cx="945.8"
   cy="243.7"
   r="10.7"
   id="circle66" />
	<g
   id="g72">
		<path
   class="st10"
   d="M950.1,234c-1.3-0.6-2.8-0.9-4.4-0.9c-5.9,0-10.7,4.8-10.7,10.7c0,2.7,1,5.2,2.7,7.1    C941.7,245.3,947,238,950.1,234z"
   id="path68" />
		<path
   class="st10"
   d="M945.5,254.4c0.1,0,0.2,0,0.3,0c5.9,0,10.7-4.8,10.7-10.7c0-1.2-0.2-2.3-0.5-3.3L945.5,254.4z"
   id="path70" />
	</g>
	<circle
   class="st9"
   cx="981.7"
   cy="243.7"
   r="10.7"
   id="circle74" />
	<g
   id="g80">
		<path
   class="st10"
   d="M986.1,234c-1.3-0.6-2.8-0.9-4.4-0.9c-5.9,0-10.7,4.8-10.7,10.7c0,2.7,1,5.2,2.7,7.1    C977.7,245.3,983,238,986.1,234z"
   id="path76" />
		<path
   class="st10"
   d="M981.5,254.4c0.1,0,0.2,0,0.3,0c5.9,0,10.7-4.8,10.7-10.7c0-1.2-0.2-2.3-0.5-3.3L981.5,254.4z"
   id="path78" />
	</g>
	<circle
   class="st11"
   cx="945.8"
   cy="243.7"
   r="10.7"
   id="circle82" />
	<circle
   class="st11"
   cx="981.7"
   cy="243.7"
   r="10.7"
   id="circle84" />
	<path
   class="st11"
   d="M954.6,237.7c0,0,3.3-6.7,9.2-6.7s9.2,6.7,9.2,6.7"
   id="path86" />
	<path
   class="st12"
   d="M919.6,213.6c0,0,6.9-4.2,13.9-4.2c7,0,12,2.7,12,2.7"
   id="path88" />
	<path
   class="st12"
   d="M1004.5,213.6c0,0-6.9-4.2-13.9-4.2c-7,0-12,2.7-12,2.7"
   id="path90" />
	<g
   id="g98">
		<path
   class="st13"
   d="M949.1,357.4l-17.6,5.7c-2.5,0.8-5.1-1-5.1-3.7v-12c0-2.6,2.6-4.5,5.1-3.7l17.6,5.7V357.4z"
   id="path92" />
		<path
   class="st13"
   d="M955.2,357.4l17.6,5.7c2.5,0.8,5.1-1,5.1-3.7v-12c0-2.6-2.6-4.5-5.1-3.7l-17.6,5.7V357.4z"
   id="path94" />
		<path
   class="st14"
   d="M954.9,359.3h-6c-1.7,0-3.1-1.4-3.1-3.1v-5.6c0-1.7,1.4-3.1,3.1-3.1h6c1.7,0,3.1,1.4,3.1,3.1v5.6    C958,357.9,956.6,359.3,954.9,359.3z"
   id="path96" />
	</g>
	<path
   class="st15"
   d="M922,340.4l-14.4,1.8l-23.3,48.1l18.5-3l-19.2,16.6c0,0,4.5,5.5,19.2,31.5c14.7,26,19.2,40.9,19.2,40.9V340.4   z"
   id="path100" />
	<rect
   x="876.5"
   y="532.1"
   class="st0"
   width="45.2"
   height="59.5"
   id="rect102" />
	<path
   class="st15"
   d="M980,340.4l14.2,1.8l23.2,48.1l-18.6-3l19.2,16.6c0,0-4.3,5.5-19,31.5c-14.7,26-19,40.9-19,40.9V340.4z"
   id="path104" />
	<g
   id="g118">
		<path
   class="st2"
   d="M853.1,562.6l-8.9,7l22,27.8c1.9,2.5,5.5,2.9,8,0.9h0c2.5-1.9,2.9-5.5,0.9-8L853.1,562.6z"
   id="path106" />
		<path
   class="st2"
   d="M862,555.9l-8.9,7l26.6,33.7c1.9,2.5,5.5,2.9,8,0.9l0,0c2.5-1.9,2.9-5.5,0.9-8L862,555.9z"
   id="path108" />
		<path
   class="st2"
   d="M873.7,552.5l-8.9,7l26.6,33.7c1.9,2.5,5.5,2.9,8,0.9l0,0c2.5-1.9,2.9-5.5,0.9-8L873.7,552.5z"
   id="path110" />
		<path
   class="st2"
   d="M878.8,541.1l-8.9,7l26.6,33.7c1.9,2.5,5.5,2.9,8,0.9h0c2.5-1.9,2.9-5.5,0.9-8L878.8,541.1z"
   id="path112" />
		<path
   class="st2"
   d="M870,535.6l-1.2,11.3l25.7,2.8c3.1,0.3,5.9-1.9,6.3-5l0,0c0.3-3.1-1.9-5.9-5-6.3L870,535.6z"
   id="path114" />
		<path
   class="st2"
   d="M876.7,538.4l6.6,6.2c1.2,1.1,1.2,3,0.1,4.2L856,577.6c-1.1,1.2-3,1.2-4.2,0.1l-6.6-6.2    c-4.5-4.3-4.7-11.5-0.4-16l15.8-16.7C864.9,534.3,872.1,534.1,876.7,538.4z"
   id="path116" />
	</g>
	<path
   class="st16"
   d="M971.3,889.7l-4.6,37.9c-0.3,2.2,1.4,4.1,3.6,4.1h15.9c2,0,3.7-1.6,3.7-3.7v-3.6c0,0,15.1,7.3,22.3,7.3   s22.2-0.3,31.9-0.3c6.4,0,14.4-2.2,19-3.7c2.2-0.7,3.5-3,3-5.3l-1.7-7.1c-1.4-5.9-7.3-9.6-13.2-8.3l0,0c-3.9,0.9-8,0.4-11.6-1.4   l-33.1-16.1H971.3z"
   id="path120" />
	<path
   class="st16"
   d="M933.9,889.7l4.6,37.9c0.3,2.2-1.4,4.1-3.6,4.1H919c-2,0-3.7-1.6-3.7-3.7v-3.6c0,0-15.1,7.3-22.3,7.3   c-7.2,0-22.2-0.3-31.9-0.3c-6.4,0-14.4-2.2-19-3.7c-2.2-0.7-3.5-3-3-5.3l1.7-7.1c1.4-5.9,7.3-9.6,13.2-8.3l0,0   c3.9,0.9,8,0.4,11.6-1.4l33.1-16.1L933.9,889.7z"
   id="path122" />
	<rect
   x="979.7"
   y="532.8"
   class="st0"
   width="48.8"
   height="59.5"
   id="rect124" />
</g>
</svg>