<?xml version="1.0" encoding="UTF-8" standalone="no"?>
<!-- Generator: Adobe Illustrator 19.2.0, SVG Export Plug-In . SVG Version: 6.00 Build 0)  -->

<svg
   xmlns:dc="http://purl.org/dc/elements/1.1/"
   xmlns:cc="http://creativecommons.org/ns#"
   xmlns:rdf="http://www.w3.org/1999/02/22-rdf-syntax-ns#"
   xmlns:svg="http://www.w3.org/2000/svg"
   xmlns="http://www.w3.org/2000/svg"
   xmlns:sodipodi="http://sodipodi.sourceforge.net/DTD/sodipodi-0.dtd"
   xmlns:inkscape="http://www.inkscape.org/namespaces/inkscape"
   version="1.1"
   id="Layer_1"
   x="0px"
   y="0px"
   viewBox="0 0 1920 1080"
   style="enable-background:new 0 0 1920 1080;"
   xml:space="preserve"
   sodipodi:docname="Professor_Working_at_his_Desk_Cartoon.svg"
   inkscape:export-filename="/home/gpetit/Nextcloud/Plateformes/Noise_Planet/Noise_Planet/Kit_pedagogique/Presentation_generale/Images/Professor_Working_at_his_Desk_Cartoon.png"
   inkscape:export-xdpi="96"
   inkscape:export-ydpi="96"
   inkscape:version="0.92.4 (f8dce91, 2019-08-02)"><metadata
   id="metadata1697"><rdf:RDF><cc:Work
       rdf:about=""><dc:format>image/svg+xml</dc:format><dc:type
         rdf:resource="http://purl.org/dc/dcmitype/StillImage" /></cc:Work></rdf:RDF></metadata><defs
   id="defs1695" /><sodipodi:namedview
   pagecolor="#ffffff"
   bordercolor="#666666"
   borderopacity="1"
   objecttolerance="10"
   gridtolerance="10"
   guidetolerance="10"
   inkscape:pageopacity="0"
   inkscape:pageshadow="2"
   inkscape:window-width="1878"
   inkscape:window-height="1136"
   id="namedview1693"
   showgrid="false"
   inkscape:zoom="0.21851852"
   inkscape:cx="960"
   inkscape:cy="540"
   inkscape:window-x="42"
   inkscape:window-y="27"
   inkscape:window-maximized="1"
   inkscape:current-layer="Layer_1" />
<style
   type="text/css"
   id="style1480">
	.st0{fill:#E6E6E6;}
	.st1{fill:#333333;}
	.st2{fill:#4C2A0F;}
	.st3{fill:#AA6F3D;}
	.st4{fill:#774829;}
	.st5{fill:#663B23;}
	.st6{fill:#A8C4CC;}
	.st7{fill:#FFFFFF;}
	.st8{fill:#F8C09D;}
	.st9{fill:#F6AE8D;}
	.st10{fill:#EF937E;}
	.st11{opacity:0.81;fill:#DAEEF2;}
	.st12{opacity:0.81;fill:#FFFFFF;}
	.st13{fill:none;stroke:#333333;stroke-width:3;stroke-miterlimit:10;}
	.st14{fill:none;stroke:#DAEEF2;stroke-width:10;stroke-miterlimit:10;}
	.st15{fill:#D13924;}
	.st16{fill:#E8533A;}
	.st17{fill:#CC7C40;}
	.st18{fill:#381D0B;}
	.st19{fill:#E2B374;}
	.st20{fill:#F9CB93;}
	.st21{fill:#C1272D;}
	.st22{fill:#AD1F2A;}
	.st23{fill:#FBB03B;}
	.st24{fill:#8C6239;}
	.st25{fill:#7F532F;}
	.st26{fill:#603813;}
	.st27{fill:#0071BC;}
	.st28{fill:#04679E;}
	.st29{fill:#2E3192;}
	.st30{fill:#2DAFD3;}
	.st31{fill:#229EBA;}
	.st32{fill:#0F6193;}
	.st33{fill:#39B54A;}
	.st34{fill:#009245;}
	.st35{fill:none;stroke:#754C24;stroke-width:3.5209;stroke-miterlimit:10;}
	.st36{fill:#AD212B;}
	.st37{fill:#D84853;}
	.st38{fill:#F7931E;}
	.st39{fill:#F2F2F2;}
</style>
<g
   id="g1498">
	<rect
   x="895.4"
   y="663.2"
   class="st0"
   width="23.1"
   height="127"
   id="rect1482" />
	<path
   class="st1"
   d="M922.1,790.1h-30.3c-4.7,0-8.6-3.8-8.6-8.6v0c0-4.7,3.8-8.6,8.6-8.6h30.3c4.7,0,8.6,3.8,8.6,8.6v0   C930.7,786.3,926.9,790.1,922.1,790.1z"
   id="path1484" />
	<path
   class="st0"
   d="M824.4,854.8h19.2l9.8-18.1c2.5-4.6,6-8.6,10.2-11.7l47.9-34.8h-28.3l-36,29.4c-3.3,2.7-6.2,6-8.3,9.8   L824.4,854.8z"
   id="path1486" />
	<path
   class="st0"
   d="M989.2,854.8H970l-9.8-18.1c-2.5-4.6-6-8.6-10.2-11.7l-47.9-34.8h28.3l36,29.4c3.3,2.7,6.2,6,8.3,9.8   L989.2,854.8z"
   id="path1488" />
	<circle
   class="st1"
   cx="834.5"
   cy="854.8"
   r="15.2"
   id="circle1490" />
	<circle
   class="st1"
   cx="980"
   cy="854.8"
   r="15.2"
   id="circle1492" />
	<rect
   x="897"
   y="790.1"
   class="st0"
   width="19.1"
   height="63"
   id="rect1494" />
	<circle
   class="st1"
   cx="907"
   cy="854.8"
   r="15.2"
   id="circle1496" />
</g>
<g
   id="g1690">
	<g
   id="g1590">
		<path
   class="st2"
   d="M995.1,672H861.5c-22.9,0-45.9,4.7-57.8-27.5l-27.3-56.4h213l24,48.8C1020.8,652.7,1010.8,672,995.1,672z"
   id="path1500" />
		<path
   class="st2"
   d="M989.3,588.1h-213V412.6c0-28.4,23-51.4,51.4-51.4H938c28.4,0,51.4,23,51.4,51.4V588.1z"
   id="path1502" />
		<path
   class="st3"
   d="M769.4,536.7l1.9,0.5c9.3,2.6,19.5-4.9,22.7-16.8l48.3-113.2c3.3-11.8,1.9-24.2-7.4-26.8l-1.9-0.5    c-13.5-3.6-19.5-0.2-52.6,70.2l-23.1,60.6C754.2,522.5,760.1,534.1,769.4,536.7z"
   id="path1504" />
		<path
   class="st4"
   d="M901.7,652.7L901.7,652.7c-38.3,0-67.1-11.8-87.1-44.5l-14.3-23.4h152l0,0    C952.3,621.4,940.7,652.7,901.7,652.7z"
   id="path1506" />
		<path
   class="st5"
   d="M1015.9,853h-36.4l-15.9-201.4l-24.1,0.8c-36.1,0.8-65.7-28.2-65.7-64.3v0h62l52.7,8.4    c25.1,4,42.2,27.6,38.2,52.7L1015.9,853z"
   id="path1508" />
		<path
   class="st3"
   d="M913.9,382.5l-1.5,0.9c-8.2,5.1-10.8,15.9-5.7,24.2l73.4,118.5l0,0l31.4-19.4l-73.4-118.5    C932.9,379.9,922.1,377.4,913.9,382.5z"
   id="path1510" />
		<path
   class="st4"
   d="M954.1,853h-36.4l-21.5-201.4l-24.1,0.8c-36.1,0.8-65.7-28.2-65.7-64.3v0h62l52.7,8.4    c25.1,4,42.2,27.6,38.2,52.7L954.1,853z"
   id="path1512" />
		<path
   class="st3"
   d="M847.5,377.4h57.7c26,0,47.2,21.1,47.2,47.2V585h-152V424.6C800.3,398.5,821.4,377.4,847.5,377.4z"
   id="path1514" />
		<rect
   x="861.5"
   y="377.4"
   class="st6"
   width="58"
   height="207.6"
   id="rect1516" />
		<path
   class="st7"
   d="M916.1,389.8c0,13.4-10.9,24.5-24.3,24.5h0h-0.2c-13.4,0-24.5-11.1-24.5-24.5v-21.5h49V389.8z"
   id="path1518" />
		<rect
   x="867.1"
   y="348.3"
   class="st8"
   width="49"
   height="46"
   id="rect1520" />
		<path
   class="st0"
   d="M862.2,218.7c0-5.6-2.6-10.7-6.6-14c0.4-1.3,0.6-2.7,0.6-4.2c0-8.4-6.8-15.2-15.2-15.2c-5.5,0-10.4,3-13,7.4    c-2.8-1.8-6.1-2.8-9.6-2.8c-10.1,0-18.2,8.2-18.2,18.2c0,1.9,0.3,3.7,0.8,5.3c-7,2.6-12,9.3-12,17.2c0,7.4,4.3,13.7,10.5,16.6    c-1.6,2.4-2.5,5.3-2.5,8.4c0,8.4,6.8,15.2,15.2,15.2c7.7,0,14-5.7,15-13.1c1.5,0.3,3,0.5,4.5,0.5c11.8,0,21.4-9.6,21.4-21.4    c0-0.8-0.1-1.6-0.1-2.4C858.5,231.4,862.2,225.5,862.2,218.7z"
   id="path1522" />
		<path
   class="st0"
   d="M989.2,237.4c0,5.6-2.6,10.7-6.6,14c0.4,1.3,0.6,2.7,0.6,4.2c0,8.4-6.8,15.2-15.2,15.2c-5.5,0-10.4-3-13-7.4    c-2.8,1.8-6.1,2.8-9.6,2.8c-10.1,0-18.2-8.2-18.2-18.2c0-1.9,0.3-3.7,0.8-5.3c-7-2.6-12-9.3-12-17.2c0-7.4,4.3-13.7,10.5-16.6    c-1.6-2.4-2.5-5.3-2.5-8.4c0-8.4,6.8-15.2,15.2-15.2c7.7,0,14,5.7,15,13.1c1.5-0.3,3-0.5,4.5-0.5c11.8,0,21.4,9.6,21.4,21.4    c0,0.8-0.1,1.6-0.1,2.4C985.5,224.7,989.2,230.7,989.2,237.4z"
   id="path1524" />
		<path
   class="st9"
   d="M867.1,364.2c9.5,4.1,19.4,6.3,28.9,6.3c6.6,0,13.4-1.1,20.1-3.1v-15.5h-49V364.2z"
   id="path1526" />
		<path
   class="st8"
   d="M896,359.4c-31.9,0-70.3-27.9-70.3-66.9v-42.8c0-32.9,26.7-59.6,59.6-59.6H907c32.9,0,59.6,26.7,59.6,59.6    v42.8C966.7,331.5,927.9,359.4,896,359.4z"
   id="path1528" />
		<circle
   class="st8"
   cx="825.4"
   cy="260.7"
   r="20"
   id="circle1530" />
		<path
   class="st10"
   d="M821.4,263.5c0-3.9,3.2-7.1,7.1-7.1c1.1,0,2.1,0.2,3,0.7c-1.2-2.1-3.5-3.5-6.1-3.5c-3.9,0-7.1,3.2-7.1,7.1    c0,2.8,1.7,5.3,4.1,6.4C821.7,266.1,821.4,264.8,821.4,263.5z"
   id="path1532" />
		<ellipse
   class="st1"
   cx="884.2"
   cy="267.1"
   rx="4.6"
   ry="8.1"
   id="ellipse1534" />
		<ellipse
   class="st1"
   cx="942.3"
   cy="267.1"
   rx="4.6"
   ry="8.1"
   id="ellipse1536" />
		<path
   class="st10"
   d="M890.1,303.6c0,12.5,10.1,22.6,22.6,22.6l0,0c12.5,0,22.6-10.1,22.6-22.6"
   id="path1538" />
		<path
   class="st0"
   d="M939.2,314.9h-54c-2.3,0-3.5-2.8-1.9-4.4l13.2-14.1c1.7-1.8,4-2.8,6.4-2.8h18.6c2.4,0,4.7,1,6.4,2.8    l13.2,14.1C942.7,312.1,941.5,314.9,939.2,314.9z"
   id="path1540" />
		<path
   class="st10"
   d="M906.2,274.5V295c0,0.9,1.1,1.6,2.1,1.6h12.1c3.3,0,5.1-3.8,3-6.4l-14-16.9    C908.4,272.2,906.2,272.9,906.2,274.5z"
   id="path1542" />
		<circle
   class="st11"
   cx="896.5"
   cy="284.8"
   r="10.7"
   id="circle1544" />
		<g
   id="g1550">
			<path
   class="st12"
   d="M900.9,275c-1.3-0.6-2.8-0.9-4.4-0.9c-5.9,0-10.7,4.8-10.7,10.7c0,2.7,1,5.2,2.7,7.1     C892.5,286.3,897.8,279,900.9,275z"
   id="path1546" />
			<path
   class="st12"
   d="M896.2,295.4c0.1,0,0.2,0,0.3,0c5.9,0,10.7-4.8,10.7-10.7c0-1.2-0.2-2.3-0.5-3.3L896.2,295.4z"
   id="path1548" />
		</g>
		<circle
   class="st11"
   cx="932.5"
   cy="284.8"
   r="10.7"
   id="circle1552" />
		<g
   id="g1558">
			<path
   class="st12"
   d="M936.9,275c-1.3-0.6-2.8-0.9-4.4-0.9c-5.9,0-10.7,4.8-10.7,10.7c0,2.7,1,5.2,2.7,7.1     C928.5,286.3,933.8,279,936.9,275z"
   id="path1554" />
			<path
   class="st12"
   d="M932.2,295.4c0.1,0,0.2,0,0.3,0c5.9,0,10.7-4.8,10.7-10.7c0-1.2-0.2-2.3-0.5-3.3L932.2,295.4z"
   id="path1556" />
		</g>
		<circle
   class="st13"
   cx="896.5"
   cy="284.8"
   r="10.7"
   id="circle1560" />
		<circle
   class="st13"
   cx="932.5"
   cy="284.8"
   r="10.7"
   id="circle1562" />
		<path
   class="st13"
   d="M905.3,278.7c0,0,3.3-6.7,9.2-6.7s9.2,6.7,9.2,6.7"
   id="path1564" />
		<path
   class="st14"
   d="M870.3,254.6c0,0,6.9-4.2,13.9-4.2c7,0,12,2.7,12,2.7"
   id="path1566" />
		<path
   class="st14"
   d="M955.2,254.6c0,0-6.9-4.2-13.9-4.2c-7,0-12,2.7-12,2.7"
   id="path1568" />
		<g
   id="g1576">
			<path
   class="st15"
   d="M888.9,394.4l-17.6,5.7c-2.5,0.8-5.1-1-5.1-3.7v-12c0-2.6,2.6-4.5,5.1-3.7l17.6,5.7V394.4z"
   id="path1570" />
			<path
   class="st15"
   d="M894.9,394.4l17.6,5.7c2.5,0.8,5.1-1,5.1-3.7v-12c0-2.6-2.6-4.5-5.1-3.7l-17.6,5.7V394.4z"
   id="path1572" />
			<path
   class="st16"
   d="M894.6,396.3h-6c-1.7,0-3.1-1.4-3.1-3.1v-5.6c0-1.7,1.4-3.1,3.1-3.1h6c1.7,0,3.1,1.4,3.1,3.1v5.6     C897.7,394.9,896.3,396.3,894.6,396.3z"
   id="path1574" />
		</g>
		<path
   class="st17"
   d="M862,377.4l-14.5,1.8l-23.4,48.1l18.5-3l-19.2,16.6c0,0,4.7,5.5,19.3,31.5c14.7,26,19.3,40.9,19.3,40.9    V377.4z"
   id="path1578" />
		<polygon
   class="st3"
   points="861.5,618.4 800.3,605.5 800.3,569.1 861.5,569.1   "
   id="polygon1580" />
		<path
   class="st17"
   d="M920,377.4l14.1,1.8l23.2,48.1l-18.6-3l19.2,16.6c0,0-4.2,5.5-18.9,31.5c-14.7,26-18.9,40.9-18.9,40.9V377.4    z"
   id="path1582" />
		<path
   class="st18"
   d="M979.8,852.7l-4.6,37.9c-0.3,2.2,1.4,4.1,3.6,4.1h15.9c2,0,3.7-1.6,3.7-3.7v-3.6c0,0,15.1,7.3,22.3,7.3    c7.2,0,22.2-0.3,31.9-0.3c6.4,0,14.4-2.2,19-3.7c2.2-0.7,3.5-3,3-5.3l-1.7-7.1c-1.4-5.9-7.3-9.6-13.2-8.3l0,0    c-3.9,0.9-8,0.4-11.6-1.4l-33.1-16.1H979.8z"
   id="path1584" />
		<path
   class="st2"
   d="M918.1,852.7l-4.6,37.9c-0.3,2.2,1.4,4.1,3.6,4.1h15.9c2,0,3.7-1.6,3.7-3.7v-3.6c0,0,15.1,7.3,22.3,7.3    s22.2-0.3,31.9-0.3c6.4,0,14.4-2.2,19-3.7c2.2-0.7,3.5-3,3-5.3l-1.7-7.1c-1.4-5.9-7.3-9.6-13.2-8.3l0,0c-3.9,0.9-8,0.4-11.6-1.4    l-33.1-16.1H918.1z"
   id="path1586" />
		<polygon
   class="st3"
   points="952.3,606.2 919.5,619.1 919.5,569.8 952.3,569.8   "
   id="polygon1588" />
	</g>
	<path
   class="st19"
   d="M1312.6,622H613.8c-5.5,0-10-4.5-10-10V515c0-5.5,4.5-10,10-10h698.9c5.5,0,10,4.5,10,10V612   C1322.6,617.5,1318.2,622,1312.6,622z"
   id="path1592" />
	<path
   class="st20"
   d="M1322.6,530.1H603.8v-15c0-5.5,4.5-10,10-10h698.9c5.5,0,10,4.5,10,10V530.1z"
   id="path1594" />
	<rect
   x="658.3"
   y="622"
   class="st2"
   width="22.1"
   height="279.8"
   id="rect1596" />
	<rect
   x="1246.7"
   y="622"
   class="st2"
   width="22.1"
   height="279.8"
   id="rect1598" />
	<g
   id="g1652">
		
			<rect
   x="671.6"
   y="346"
   transform="matrix(4.502691e-11 1 -1 4.502691e-11 1104.4009 -276.3375)"
   class="st21"
   width="37.5"
   height="136.1"
   id="rect1600" />
		
			<rect
   x="686.1"
   y="360.4"
   transform="matrix(4.537863e-11 1 -1 4.537863e-11 1118.8765 -261.8619)"
   class="st22"
   width="8.6"
   height="136.1"
   id="rect1602" />
		
			<rect
   x="717.2"
   y="403.3"
   transform="matrix(4.478444e-11 1 -1 4.478444e-11 1149.9594 -321.896)"
   class="st23"
   width="37.5"
   height="21.4"
   id="rect1604" />
		
			<rect
   x="650.9"
   y="303.1"
   transform="matrix(4.481286e-11 1 -1 4.481286e-11 1046.2115 -294.2792)"
   class="st24"
   width="38.6"
   height="145.8"
   id="rect1606" />
		
			<rect
   x="666"
   y="318.1"
   transform="matrix(4.431814e-11 1 -1 4.431814e-11 1061.2233 -279.2675)"
   class="st25"
   width="8.6"
   height="145.8"
   id="rect1608" />
		
			<rect
   x="609.7"
   y="365.2"
   transform="matrix(4.351701e-11 1 -1 4.351701e-11 1004.9217 -252.9894)"
   class="st26"
   width="38.6"
   height="21.4"
   id="rect1610" />
		<rect
   x="608.6"
   y="356.7"
   class="st26"
   width="3.2"
   height="38.6"
   id="rect1612" />
		
			<rect
   x="705.6"
   y="367.4"
   transform="matrix(4.507221e-11 1 -1 4.507221e-11 1100.8817 -348.9493)"
   class="st26"
   width="38.6"
   height="17.2"
   id="rect1614" />
		<rect
   x="715.6"
   y="395.3"
   class="st23"
   width="3.2"
   height="37.5"
   id="rect1616" />
		
			<rect
   x="650.9"
   y="379.2"
   transform="matrix(4.490079e-11 1 -1 4.490079e-11 1118.0541 -218.1488)"
   class="st27"
   width="34.3"
   height="141.5"
   id="rect1618" />
		
			<rect
   x="663.8"
   y="392.1"
   transform="matrix(4.548432e-11 1 -1 4.548432e-11 1130.9214 -205.2816)"
   class="st28"
   width="8.6"
   height="141.5"
   id="rect1620" />
		<path
   class="st29"
   d="M631.1,459.6c-5.6,0-10.2-4.6-10.2-10.2l0,0c0-5.6,4.6-10.2,10.2-10.2h83.6c5.6,0,10.2,4.6,10.2,10.2l0,0    c0,5.6-4.6,10.2-10.2,10.2H631.1z"
   id="path1622" />
		<path
   class="st23"
   d="M654.5,425v-19.8c0-0.7,0.6-1.3,1.3-1.3h35.9c0.7,0,1.3,0.6,1.3,1.3V425c0,0.7-0.6,1.3-1.3,1.3h-35.9    C655.1,426.4,654.5,425.8,654.5,425z"
   id="path1624" />
		
			<rect
   x="664.1"
   y="418"
   transform="matrix(1.107873e-03 1 -1 1.107873e-03 1168.1919 -197.4211)"
   class="st30"
   width="37.7"
   height="136.1"
   id="rect1626" />
		
			<rect
   x="678.4"
   y="432.3"
   transform="matrix(1.107873e-03 1 -1 1.107873e-03 1182.4675 -183.1928)"
   class="st31"
   width="9.2"
   height="136.1"
   id="rect1628" />
		
			<rect
   x="735"
   y="467.2"
   transform="matrix(1 -1.107873e-03 1.107873e-03 1 -0.5379 0.8164)"
   class="st32"
   width="3.2"
   height="37.5"
   id="rect1630" />
		
			<rect
   x="727.4"
   y="467.2"
   transform="matrix(1 -1.107873e-03 1.107873e-03 1 -0.538 0.8079)"
   class="st32"
   width="3.2"
   height="37.5"
   id="rect1632" />
		<ellipse
   class="st26"
   cx="693.9"
   cy="376.1"
   rx="10.9"
   ry="10.9"
   id="ellipse1634" />
		<path
   class="st32"
   d="M646.3,494l0-14.6c0-1,0.8-1.8,1.8-1.8l64.2-0.1c1,0,1.8,0.8,1.8,1.8l0,14.6c0,1-0.8,1.8-1.8,1.8l-64.2,0.1    C647.1,495.8,646.3,495,646.3,494z"
   id="path1636" />
		<path
   class="st33"
   d="M671.9,299.4c0,0-4.3,5-10.5,4.6c-6.2-0.4-10.4-6.1-10.4-6.1s4.2-5.2,11.1-4.7    C669.1,293.7,671.9,299.4,671.9,299.4z"
   id="path1638" />
		<path
   class="st34"
   d="M671.9,299.4c0,0-5.9,1.7-10.3-2.7c-4.4-4.4-4.6-12-4.6-12s7.2-0.6,12.2,4.3S671.9,299.4,671.9,299.4z"
   id="path1640" />
		<path
   class="st35"
   d="M672.9,314.3c0,0-1.1-3,0-10.4c1.1-7.5,4.3-11.5,4.3-11.5"
   id="path1642" />
		<path
   class="st36"
   d="M700.1,328.6c-0.5-8.8-5-15.7-14.3-17.9c-7.8-1.9-7.4,4.5-12.8,4.5c-5.4,0-5.1-6.3-12.8-4.5    c-9.3,2.2-13.8,9.1-14.3,17.9s10.8,38.5,25.2,26.4v0.2c0,0,0.8-0.8,2-0.9c1.1,0.1,2,0.9,2,0.9v-0.2    C689.3,367.1,700.6,337.4,700.1,328.6z"
   id="path1644" />
		<path
   class="st21"
   d="M700.1,326c-0.5-8.8-5-15.7-14.3-17.9c-7.8-1.9-7.4,4.5-12.8,4.5c-5.4,0-5.1-6.3-12.8-4.5    c-9.3,2.2-13.8,9.1-14.3,17.9c-0.5,8.8,10.8,38.5,25.2,26.4v0.2c0,0,0.8-0.8,2-0.9c1.1,0.1,2,0.9,2,0.9v-0.2    C689.3,364.5,700.6,334.7,700.1,326z"
   id="path1646" />
		<g
   id="g1650">
			<path
   class="st37"
   d="M700.1,326c-0.5-8.8-5-15.7-14.3-17.9c-4.8-1.2-6.5,0.8-8.4,2.5c1.1-0.3,2.5-0.3,4.4,0.1     c5.8,1.3,10.8,4.3,14,12.5c2,5.2,2.5,12.6,2.5,12.6S700.3,329.2,700.1,326z"
   id="path1648" />
		</g>
	</g>
	<g
   id="g1676">
		<path
   class="st7"
   d="M1291.3,498.6H1195c-7.9,0-14.3-6.4-14.3-14.3v0c0-7.9,6.4-14.3,14.3-14.3h96.3c0,0-5.2,5.5-5.2,14.3    C1286.2,493.1,1291.3,498.6,1291.3,498.6z"
   id="path1654" />
		<g
   id="g1660">
			<path
   class="st0"
   d="M1290.8,498.6h0.6c0,0-0.4-0.5-1-1.3C1290.5,497.8,1290.6,498.2,1290.8,498.6z"
   id="path1656" />
			<path
   class="st0"
   d="M1183.8,490.5L1183.8,490.5c0-7.9,6.4-14.3,14.3-14.3h89.6c1.5-3.9,3.6-6.1,3.6-6.1H1195     c-7.9,0-14.3,6.4-14.3,14.3c0,3.5,1.3,6.8,3.4,9.2C1183.9,492.6,1183.8,491.5,1183.8,490.5z"
   id="path1658" />
		</g>
		<path
   class="st21"
   d="M1195,498.6c-7.9,0-14.3-6.4-14.3-14.3c0-7.9,6.4-14.3,14.3-14.3h101.5v-6.1h-104.1    c-11.3,0-20.4,9.1-20.4,20.4s9.1,20.4,20.4,20.4h104.1v-6.1H1195z"
   id="path1662" />
		<path
   class="st7"
   d="M1199.7,457.8h73.9c7.9,0,14.3-6.4,14.3-14.3v0c0-7.9-6.4-14.3-14.3-14.3h-73.9c0,0,5.2,5.5,5.2,14.3    S1199.7,457.8,1199.7,457.8z"
   id="path1664" />
		<g
   id="g1670">
			<path
   class="st0"
   d="M1200.3,457.8h-0.6c0,0,0.4-0.5,1-1.3C1200.6,456.9,1200.4,457.3,1200.3,457.8z"
   id="path1666" />
			<path
   class="st0"
   d="M1284.8,449.6L1284.8,449.6c0-7.9-6.4-14.3-14.3-14.3h-67.2c-1.5-3.9-3.6-6.1-3.6-6.1h73.9     c7.9,0,14.3,6.4,14.3,14.3c0,3.5-1.3,6.8-3.4,9.2C1284.7,451.7,1284.8,450.7,1284.8,449.6z"
   id="path1668" />
		</g>
		<path
   class="st24"
   d="M1273.6,457.8c7.9,0,14.3-6.4,14.3-14.3c0-7.9-6.4-14.3-14.3-14.3h-79.2V423h81.7c11.3,0,20.4,9.1,20.4,20.4    c0,11.3-9.1,20.4-20.4,20.4h-81.7v-6.1H1273.6z"
   id="path1672" />
		<polygon
   class="st38"
   points="1232.6,451.4 1224.1,446.4 1215.5,451.4 1215.5,435.5 1232.6,435.5   "
   id="polygon1674" />
	</g>
	<path
   class="st39"
   d="M1174.7,474H942.9c-5.7,0-10.4-4.7-10.4-10.4V314.7c0-5.7,4.7-10.4,10.4-10.4h231.9c5.7,0,10.4,4.7,10.4,10.4   v148.9C1185.2,469.3,1180.5,474,1174.7,474z"
   id="path1678" />
	<path
   class="st0"
   d="M1085,505h-52.3v-78.7c0-3.5,2.9-6.4,6.4-6.4h39.5c3.5,0,6.4,2.9,6.4,6.4V505z"
   id="path1680" />
	<path
   class="st39"
   d="M1096.9,506h-76.1c-3.9,0-7.1-3.2-7.1-7.1v0c0-3.9,3.2-7.1,7.1-7.1h76.1c3.9,0,7.1,3.2,7.1,7.1v0   C1104,502.8,1100.8,506,1096.9,506z"
   id="path1682" />
	<path
   class="st39"
   d="M934.2,505h-54V498c0-4.9,4-9,9-9h36c4.9,0,9,4,9,9V505z"
   id="path1684" />
	<path
   class="st3"
   d="M767.9,487.3L767.9,487.3c0.5,10.2,9.2,18,19.4,17.5l97.2-5v0l-1.9-36.8l-97.2,5   C775.2,468.4,767.3,477.1,767.9,487.3z"
   id="path1686" />
	<path
   class="st8"
   d="M884,494.7l-1.1-18c6.2-4.5,19.2-10.2,26.6-9.8c10.3,0.6,36,12.9,35.7,18.4c-0.3,4.7-6.9,1.1-5.9,1.2   c3.1,1.8,0.2,9.1-4.8,5.6c-0.1,1.1,0.3,5-8.2,0.6c-3.7-1.9-10.9-3-20.1-2.8C891.1,490.2,888.1,493.8,884,494.7z"
   id="path1688" />
</g>
</svg>