<?xml version="1.0" encoding="UTF-8" standalone="no"?>
<!-- Generator: Adobe Illustrator 19.2.0, SVG Export Plug-In . SVG Version: 6.00 Build 0)  -->

<svg
   xmlns:dc="http://purl.org/dc/elements/1.1/"
   xmlns:cc="http://creativecommons.org/ns#"
   xmlns:rdf="http://www.w3.org/1999/02/22-rdf-syntax-ns#"
   xmlns:svg="http://www.w3.org/2000/svg"
   xmlns="http://www.w3.org/2000/svg"
   xmlns:sodipodi="http://sodipodi.sourceforge.net/DTD/sodipodi-0.dtd"
   xmlns:inkscape="http://www.inkscape.org/namespaces/inkscape"
   version="1.1"
   id="Layer_1"
   x="0px"
   y="0px"
   viewBox="0 0 1920 1080"
   style="enable-background:new 0 0 1920 1080;"
   xml:space="preserve"
   sodipodi:docname="Professor_Speaking_on_the_Podium_Cartoon.svg"
   inkscape:export-filename="/home/gpetit/Nextcloud/Plateformes/Noise_Planet/Noise_Planet/Kit_pedagogique/Presentation_generale/Images/Professor_Speaking_on_the_Podium_Cartoon.png"
   inkscape:export-xdpi="96"
   inkscape:export-ydpi="96"
   inkscape:version="0.92.4 (f8dce91, 2019-08-02)"><metadata
   id="metadata155"><rdf:RDF><cc:Work
       rdf:about=""><dc:format>image/svg+xml</dc:format><dc:type
         rdf:resource="http://purl.org/dc/dcmitype/StillImage" /></cc:Work></rdf:RDF></metadata><defs
   id="defs153" /><sodipodi:namedview
   pagecolor="#ffffff"
   bordercolor="#666666"
   borderopacity="1"
   objecttolerance="10"
   gridtolerance="10"
   guidetolerance="10"
   inkscape:pageopacity="0"
   inkscape:pageshadow="2"
   inkscape:window-width="1878"
   inkscape:window-height="1136"
   id="namedview151"
   showgrid="false"
   inkscape:zoom="0.21851852"
   inkscape:cx="960"
   inkscape:cy="540"
   inkscape:window-x="42"
   inkscape:window-y="27"
   inkscape:window-maximized="1"
   inkscape:current-layer="Layer_1" />
<style
   type="text/css"
   id="style2">
	.st0{fill:#AA6F3D;}
	.st1{fill:#774829;}
	.st2{fill:#F8C09D;}
	.st3{fill:#A8C4CC;}
	.st4{fill:#FFFFFF;}
	.st5{fill:#E6E6E6;}
	.st6{fill:#F6AE8D;}
	.st7{fill:#EF937E;}
	.st8{fill:#333333;}
	.st9{opacity:0.81;fill:#DAEEF2;}
	.st10{opacity:0.81;fill:#FFFFFF;}
	.st11{fill:none;stroke:#333333;stroke-width:3;stroke-miterlimit:10;}
	.st12{fill:none;stroke:#DAEEF2;stroke-width:10;stroke-miterlimit:10;}
	.st13{fill:#D13924;}
	.st14{fill:#E8533A;}
	.st15{fill:#CC7C40;}
	.st16{fill:#4C2A0F;}
	.st17{fill:#99502B;}
	.st18{fill:#6B3C2C;}
	.st19{fill:#82462B;}
	.st20{fill:none;stroke:#6B3C2C;stroke-width:5;stroke-miterlimit:10;}
</style>
<g
   id="g148">
	<g
   id="g126">
		<path
   class="st0"
   d="M1074.7,475.1L1074.7,475.1c9.5,3.6,20.2-1.2,23.8-10.8l48.5-128.5c3.6-9.5-1.2-20.2-10.8-23.8l0,0    c-9.5-3.6-20.2,1.2-23.8,10.8l-48.5,128.5C1060.3,460.9,1065.1,471.5,1074.7,475.1z"
   id="path4" />
		<path
   class="st1"
   d="M929.1,624h-1.3c-41.6,0-75.4-34.2-75.4-75.8V548h152v0.2C1004.4,589.8,970.7,624,929.1,624z"
   id="path6" />
		<path
   class="st0"
   d="M958.8,350.1L958.8,350.1c-6.7,7.6-6,19.3,1.6,26l102.9,91c7.6,6.7,19.3,6,26-1.6v0c6.7-7.6,6-19.3-1.6-26    l-102.9-91C977.2,341.8,965.6,342.5,958.8,350.1z"
   id="path8" />
		<path
   class="st0"
   d="M824.6,506.5L824.6,506.5c9.6,3.4,20.1-1.7,23.5-11.3l45.4-129.6c3.4-9.6-1.7-20.1-11.3-23.5l0,0    c-9.6-3.4-20.1,1.7-23.5,11.3L813.3,483C810,492.6,815,503.2,824.6,506.5z"
   id="path10" />
		<path
   class="st0"
   d="M828.6,469.9L828.6,469.9c-10.1,1.4-17.1,10.8-15.6,20.9l19.5,136c1.4,10.1,10.8,17.1,20.9,15.6h0    c10.1-1.4,17.1-10.8,15.6-20.9l-19.5-136C848.1,475.4,838.7,468.4,828.6,469.9z"
   id="path12" />
		<polygon
   class="st1"
   points="909.8,890 873.4,890 852.4,548 914.4,548   "
   id="polygon14" />
		<polygon
   class="st1"
   points="947.2,890 982.4,890 1004.4,548 941.4,548   "
   id="polygon16" />
		<path
   class="st0"
   d="M899.5,340.4h57.7c26,0,47.2,21.1,47.2,47.2V548h-152V387.6C852.4,361.5,873.5,340.4,899.5,340.4z"
   id="path18" />
		<g
   id="g32">
			<path
   class="st2"
   d="M1108,349.6L1108,349.6c2.6-2.4,2.7-6.5,0.3-9l-20.1-21.4c-2.4-2.6-6.5-2.7-9-0.3l0,0     c-2.6,2.4-2.7,6.5-0.3,9l20.1,21.4C1101.3,351.9,1105.4,352,1108,349.6z"
   id="path20" />
			<path
   class="st2"
   d="M1143.3,357.7l3.7-9.7c1.6-4.2-0.5-8.8-4.6-10.4l-32.8-12.6c-4.2-1.6-8.8,0.5-10.4,4.6l-3.7,9.7     c-1.7,4.4,0.5,9.4,4.9,11.1l31.8,12.2C1136.6,364.3,1141.6,362.1,1143.3,357.7z"
   id="path22" />
			<path
   class="st2"
   d="M1101.1,342.4L1101.1,342.4c3.3,1.3,7-0.4,8.3-3.7l21.4-55.4c1.3-3.3-0.4-7-3.7-8.3v0     c-3.3-1.3-7,0.4-8.3,3.7l-21.4,55.4C1096.1,337.4,1097.8,341.1,1101.1,342.4z"
   id="path24" />
			<path
   class="st2"
   d="M1115.1,341.6L1115.1,341.6c3.3,1.3,7-0.4,8.3-3.7l10.6-27.4c1.3-3.3-0.4-7-3.7-8.3h0     c-3.3-1.3-7,0.4-8.3,3.7l-10.6,27.4C1110.2,336.6,1111.8,340.3,1115.1,341.6z"
   id="path26" />
			<path
   class="st2"
   d="M1125.9,349.2L1125.9,349.2c3.3,1.3,7-0.4,8.3-3.7l10.6-27.4c1.3-3.3-0.4-7-3.7-8.3l0,0     c-3.3-1.3-7,0.4-8.3,3.7l-10.6,27.4C1121,344.2,1122.6,347.9,1125.9,349.2z"
   id="path28" />
			<path
   class="st2"
   d="M1136.2,358.2L1136.2,358.2c3.3,1.3,7-0.4,8.3-3.7l10.6-27.4c1.3-3.3-0.4-7-3.7-8.3l0,0     c-3.3-1.3-7,0.4-8.3,3.7l-10.6,27.4C1131.2,353.2,1132.9,356.9,1136.2,358.2z"
   id="path30" />
		</g>
		<rect
   x="897.5"
   y="340.4"
   class="st3"
   width="58"
   height="207.6"
   id="rect34" />
		<path
   class="st4"
   d="M952.2,352.8c0,13.4-10.9,24.5-24.3,24.5h0h-0.2c-13.4,0-24.5-11.1-24.5-24.5v-21.5h49V352.8z"
   id="path36" />
		<rect
   x="903.2"
   y="311.3"
   class="st2"
   width="49"
   height="46"
   id="rect38" />
		<path
   class="st5"
   d="M904.5,181.7c0-5.6-2.6-10.7-6.6-14c0.4-1.3,0.6-2.7,0.6-4.2c0-8.4-6.8-15.2-15.2-15.2c-5.5,0-10.4,3-13,7.4    c-2.8-1.8-6.1-2.8-9.6-2.8c-10.1,0-18.2,8.2-18.2,18.2c0,1.9,0.3,3.7,0.8,5.3c-7,2.6-12,9.3-12,17.2c0,7.4,4.3,13.7,10.5,16.6    c-1.6,2.4-2.5,5.3-2.5,8.4c0,8.4,6.8,15.2,15.2,15.2c7.7,0,14-5.7,15-13.1c1.5,0.3,3,0.5,4.5,0.5c11.8,0,21.4-9.6,21.4-21.4    c0-0.8-0.1-1.6-0.1-2.4C900.7,194.4,904.5,188.5,904.5,181.7z"
   id="path40" />
		<path
   class="st5"
   d="M1035.5,200.4c0,5.6-2.6,10.7-6.6,14c0.4,1.3,0.6,2.7,0.6,4.2c0,8.4-6.8,15.2-15.2,15.2c-5.5,0-10.4-3-13-7.4    c-2.8,1.8-6.1,2.8-9.6,2.8c-10.1,0-18.2-8.2-18.2-18.2c0-1.9,0.3-3.7,0.8-5.3c-7-2.6-12-9.3-12-17.2c0-7.4,4.3-13.7,10.5-16.6    c-1.6-2.4-2.5-5.3-2.5-8.4c0-8.4,6.8-15.2,15.2-15.2c7.7,0,14,5.7,15,13.1c1.5-0.3,3-0.5,4.5-0.5c11.8,0,21.4,9.6,21.4,21.4    c0,0.8-0.1,1.6-0.1,2.4C1031.7,187.7,1035.5,193.7,1035.5,200.4z"
   id="path42" />
		<path
   class="st6"
   d="M903.2,327.2c9.5,4.1,19.4,6.3,28.9,6.3c6.6,0,13.4-1.1,20.1-3.1v-15.5h-49V327.2z"
   id="path44" />
		<path
   class="st2"
   d="M932.1,322.4c-31.9,0-70.3-27.9-70.3-66.9v-42.8c0-32.9,26.7-59.6,59.6-59.6h21.6c32.9,0,59.6,26.7,59.6,59.6    v42.8C1002.7,294.5,964,322.4,932.1,322.4z"
   id="path46" />
		<circle
   class="st2"
   cx="861.5"
   cy="223.7"
   r="20"
   id="circle48" />
		<path
   class="st7"
   d="M857.4,226.5c0-3.9,3.2-7.1,7.1-7.1c1.1,0,2.1,0.2,3,0.7c-1.2-2.1-3.5-3.5-6.1-3.5c-3.9,0-7.1,3.2-7.1,7.1    c0,2.8,1.7,5.3,4.1,6.4C857.8,229.1,857.4,227.8,857.4,226.5z"
   id="path50" />
		<ellipse
   class="st8"
   cx="909.3"
   cy="226.1"
   rx="4.6"
   ry="8.1"
   id="ellipse52" />
		<ellipse
   class="st8"
   cx="967.4"
   cy="226.1"
   rx="4.6"
   ry="8.1"
   id="ellipse54" />
		<circle
   class="st2"
   cx="1004.3"
   cy="223.7"
   r="20"
   id="circle56" />
		<path
   class="st7"
   d="M1010.9,226.5c0-3.9-3.2-7.1-7.1-7.1c-1.1,0-2.1,0.2-3,0.7c1.2-2.1,3.5-3.5,6.1-3.5c3.9,0,7.1,3.2,7.1,7.1    c0,2.8-1.7,5.3-4.1,6.4C1010.5,229.1,1010.9,227.8,1010.9,226.5z"
   id="path58" />
		<path
   class="st7"
   d="M915.2,262.6c0,12.5,10.1,22.6,22.6,22.6h0c12.5,0,22.6-10.1,22.6-22.6"
   id="path60" />
		<path
   class="st5"
   d="M964.3,273.9h-54c-2.3,0-3.5-2.8-1.9-4.4l13.2-14.1c1.7-1.8,4-2.8,6.4-2.8h18.6c2.4,0,4.7,1,6.4,2.8    l13.2,14.1C967.8,271.1,966.6,273.9,964.3,273.9z"
   id="path62" />
		<path
   class="st7"
   d="M931.3,233.5V254c0,0.9,1.1,1.6,2.1,1.6h12.1c3.3,0,5.1-3.8,3-6.4l-14-16.9    C933.5,231.2,931.3,231.9,931.3,233.5z"
   id="path64" />
		<circle
   class="st9"
   cx="921.6"
   cy="243.7"
   r="10.7"
   id="circle66" />
		<g
   id="g72">
			<path
   class="st10"
   d="M926.2,234c-1.3-0.6-2.8-0.9-4.4-0.9c-5.9,0-10.7,4.8-10.7,10.7c0,2.7,1,5.2,2.7,7.1     C917.8,245.3,923.1,238,926.2,234z"
   id="path68" />
			<path
   class="st10"
   d="M921.5,254.4c0.1,0,0.2,0,0.3,0c5.9,0,10.7-4.8,10.7-10.7c0-1.2-0.2-2.3-0.5-3.3L921.5,254.4z"
   id="path70" />
		</g>
		<circle
   class="st9"
   cx="957.6"
   cy="243.7"
   r="10.7"
   id="circle74" />
		<g
   id="g80">
			<path
   class="st10"
   d="M962.2,234c-1.3-0.6-2.8-0.9-4.4-0.9c-5.9,0-10.7,4.8-10.7,10.7c0,2.7,1,5.2,2.7,7.1     C953.8,245.3,959.1,238,962.2,234z"
   id="path76" />
			<path
   class="st10"
   d="M957.5,254.4c0.1,0,0.2,0,0.3,0c5.9,0,10.7-4.8,10.7-10.7c0-1.2-0.2-2.3-0.5-3.3L957.5,254.4z"
   id="path78" />
		</g>
		<circle
   class="st11"
   cx="921.6"
   cy="243.7"
   r="10.7"
   id="circle82" />
		<circle
   class="st11"
   cx="957.6"
   cy="243.7"
   r="10.7"
   id="circle84" />
		<path
   class="st11"
   d="M930.6,237.7c0,0,3.3-6.7,9.2-6.7s9.2,6.7,9.2,6.7"
   id="path86" />
		<path
   class="st12"
   d="M895.6,213.6c0,0,6.9-4.2,13.9-4.2c7,0,12,2.7,12,2.7"
   id="path88" />
		<path
   class="st12"
   d="M980.5,213.6c0,0-6.9-4.2-13.9-4.2c-7,0-12,2.7-12,2.7"
   id="path90" />
		<g
   id="g98">
			<path
   class="st13"
   d="M925,357.4l-17.6,5.7c-2.5,0.8-5.1-1-5.1-3.7v-12c0-2.6,2.6-4.5,5.1-3.7l17.6,5.7V357.4z"
   id="path92" />
			<path
   class="st13"
   d="M931,357.4l17.6,5.7c2.5,0.8,5.1-1,5.1-3.7v-12c0-2.6-2.6-4.5-5.1-3.7l-17.6,5.7V357.4z"
   id="path94" />
			<path
   class="st14"
   d="M930.7,359.3h-6c-1.7,0-3.1-1.4-3.1-3.1v-5.6c0-1.7,1.4-3.1,3.1-3.1h6c1.7,0,3.1,1.4,3.1,3.1v5.6     C933.8,357.9,932.4,359.3,930.7,359.3z"
   id="path96" />
		</g>
		<path
   class="st15"
   d="M898,340.4l-14.4,1.8l-23.3,48.1l18.5-3l-19.2,16.6c0,0,4.5,5.5,19.2,31.5c14.7,26,19.2,40.9,19.2,40.9    V340.4z"
   id="path100" />
		<rect
   x="852.4"
   y="532.1"
   class="st0"
   width="45.2"
   height="59.5"
   id="rect102" />
		<path
   class="st15"
   d="M956,340.4l14.2,1.8l23.2,48.1l-18.6-3l19.2,16.6c0,0-4.3,5.5-19,31.5c-14.7,26-19,40.9-19,40.9V340.4z"
   id="path104" />
		<g
   id="g118">
			<path
   class="st2"
   d="M841.4,624.8l-11.2,1.7l5.4,35.1c0.5,3.1,3.4,5.2,6.5,4.7l0,0c3.1-0.5,5.2-3.4,4.7-6.5L841.4,624.8z"
   id="path106" />
			<path
   class="st2"
   d="M853.1,623.1l-11.2,2.1l8,42.2c0.6,3.1,3.6,5.1,6.6,4.5h0c3.1-0.6,5.1-3.6,4.5-6.6L853.1,623.1z"
   id="path108" />
			<path
   class="st2"
   d="M864,625.3l-10.9,3.3l12.5,41.1c0.9,3,4.1,4.7,7.1,3.8l0,0c3-0.9,4.7-4.1,3.8-7.1L864,625.3z"
   id="path110" />
			<path
   class="st2"
   d="M869.9,617.8l-10.1,5.3l19.8,38c1.5,2.8,4.9,3.9,7.7,2.4l0,0c2.8-1.5,3.9-4.9,2.4-7.7L869.9,617.8z"
   id="path112" />
			<path
   class="st2"
   d="M869.5,609.8l-6.6,9.2l21,15.1c2.5,1.8,6.1,1.3,7.9-1.3l0,0c1.8-2.5,1.3-6.1-1.3-7.9L869.5,609.8z"
   id="path114" />
			<path
   class="st2"
   d="M873.8,615.4l2.6,8.7c0.5,1.6-0.4,3.3-2,3.7l-37.9,11.5c-1.6,0.5-3.3-0.4-3.7-2l-2.6-8.7     c-1.8-6,1.6-12.3,7.5-14.1l22-6.7C865.7,606.1,872,609.4,873.8,615.4z"
   id="path116" />
		</g>
		<path
   class="st16"
   d="M947.2,889.7l-4.6,37.9c-0.3,2.2,1.4,4.1,3.6,4.1h15.9c2,0,3.7-1.6,3.7-3.7v-3.6c0,0,15.1,7.3,22.3,7.3    s22.2-0.3,31.9-0.3c6.4,0,14.4-2.2,19-3.7c2.2-0.7,3.5-3,3-5.3l-1.7-7.1c-1.4-5.9-7.3-9.6-13.2-8.3h0c-3.9,0.9-8,0.4-11.6-1.4    l-33.1-16.1H947.2z"
   id="path120" />
		<path
   class="st16"
   d="M909.8,889.7l4.6,37.9c0.3,2.2-1.4,4.1-3.6,4.1h-15.9c-2,0-3.7-1.6-3.7-3.7v-3.6c0,0-15.1,7.3-22.3,7.3    s-22.2-0.3-31.9-0.3c-6.4,0-14.4-2.2-19-3.7c-2.2-0.7-3.5-3-3-5.3l1.7-7.1c1.4-5.9,7.3-9.6,13.2-8.3l0,0c3.9,0.9,8,0.4,11.6-1.4    l33.1-16.1L909.8,889.7z"
   id="path122" />
		<rect
   x="955.6"
   y="532.8"
   class="st0"
   width="48.8"
   height="59.5"
   id="rect124" />
	</g>
	<g
   id="g142">
		<polygon
   class="st17"
   points="1098,444.8 764.6,444.8 775.6,428.8 1087,428.8   "
   id="polygon128" />
		<polygon
   class="st18"
   points="1063.5,513.9 799.1,513.9 764.6,444.8 1098,444.8   "
   id="polygon130" />
		<polygon
   class="st19"
   points="1031.6,873.8 831.6,873.8 819.1,470.9 1045.5,470.9   "
   id="polygon132" />
		<polygon
   class="st17"
   points="1008.2,853.9 855.4,853.9 845.8,494.8 1018.7,494.8   "
   id="polygon134" />
		<rect
   x="810.5"
   y="873.8"
   class="st17"
   width="235"
   height="21.3"
   id="rect136" />
		<rect
   x="797.4"
   y="895.1"
   class="st17"
   width="261.2"
   height="36.3"
   id="rect138" />
		<rect
   x="797.4"
   y="895.1"
   class="st19"
   width="261.2"
   height="11.4"
   id="rect140" />
	</g>
	<path
   class="st18"
   d="M999.9,332.8L999.9,332.8c-4.6,3-10.8,1.6-13.7-3l-11.3-17.6c-3-4.6-1.6-10.8,3-13.7h0c4.6-3,10.8-1.6,13.7,3   l11.3,17.6C1005.9,323.7,1004.6,329.8,999.9,332.8z"
   id="path144" />
	<path
   class="st20"
   d="M998.6,330.8l24.5,37.7c2.2,3.4,3.3,7.3,3.3,11.4v48.8"
   id="path146" />
</g>
</svg>